{"glyphs":{"0":{"ha":710,"x_min":0,"x_max":0,"o":"m 46 451 b 101 136 46 390 54 231 b 354 -14 153 35 226 -14 b 664 475 569 -14 664 132 b 607 792 664 536 656 696 b 354 940 556 893 479 940 b 46 451 143 940 46 799 z m 260 463 b 278 728 260 600 264 685 b 356 792 293 774 315 792 b 433 728 401 792 421 765 b 450 463 449 681 450 575 b 432 197 450 322 446 240 b 356 135 417 150 392 135 b 278 199 308 135 290 161 b 260 463 261 249 260 361 z "},"1":{"ha":710,"x_min":0,"x_max":0,"o":"m 483 935 l 328 935 b 125 764 289 882 235 822 l 125 582 b 281 699 200 622 238 656 l 281 151 l 125 151 l 125 0 l 636 0 l 636 151 l 483 151 z "},"2":{"ha":710,"x_min":0,"x_max":0,"o":"m 225 600 b 333 775 239 747 282 775 b 419 660 419 775 419 679 b 381 524 419 606 401 557 b 39 182 310 413 125 256 l 39 0 l 631 0 l 646 182 l 247 182 b 633 671 476 335 633 478 b 346 940 633 771 578 940 b 39 638 119 940 61 769 z "},"3":{"ha":710,"x_min":0,"x_max":0,"o":"m 221 668 b 326 782 233 722 253 782 b 397 750 356 782 382 774 b 419 669 418 721 419 681 b 288 554 419 554 332 554 l 232 554 l 232 406 l 288 406 b 431 279 374 407 431 372 b 324 151 431 201 393 151 b 203 289 221 151 208 240 l 22 260 b 103 74 31 207 43 135 b 338 -14 167 8 263 -14 b 640 265 431 -14 640 22 b 485 486 640 363 604 447 b 621 692 526 506 621 550 b 349 940 621 860 504 940 b 43 701 225 940 99 892 z "},"4":{"ha":710,"x_min":0,"x_max":0,"o":"m 349 940 l 35 375 l 35 218 l 367 218 l 367 0 l 571 0 l 571 218 l 675 218 l 675 375 l 571 375 l 571 940 z m 178 365 l 383 746 l 383 365 z "},"5":{"ha":710,"x_min":0,"x_max":0,"o":"m 121 926 l 88 408 l 247 378 b 349 450 258 404 278 450 b 467 301 451 450 467 350 b 439 193 467 283 465 232 b 353 151 426 172 403 151 b 232 278 253 151 239 233 l 47 247 b 121 78 53 206 61 140 b 353 -14 179 15 258 -14 b 522 26 411 -14 471 -3 b 664 313 647 96 664 229 b 613 514 664 335 664 439 b 415 615 549 607 444 615 b 257 536 321 615 278 563 l 268 744 l 596 744 l 615 926 z "},"6":{"ha":710,"x_min":0,"x_max":0,"o":"m 665 693 b 390 940 653 754 613 940 b 229 894 331 940 278 929 b 71 451 92 797 71 618 b 104 190 71 383 76 286 b 379 -14 115 154 175 -14 b 671 294 506 -14 671 51 b 429 585 671 494 546 585 b 258 479 321 585 281 517 b 385 792 263 635 267 792 b 501 644 479 792 496 678 z m 372 436 b 474 294 471 436 474 335 b 369 133 474 219 460 133 b 267 281 267 133 267 257 b 372 436 267 311 267 436 z "},"7":{"ha":710,"x_min":0,"x_max":0,"o":"m 74 744 l 464 744 b 265 401 417 685 332 582 b 193 0 197 218 194 69 l 414 0 b 639 771 421 447 544 640 l 639 926 l 89 926 z "},"8":{"ha":710,"x_min":0,"x_max":0,"o":"m 525 506 b 643 704 565 531 643 579 b 597 847 643 747 633 800 b 365 940 542 922 454 940 b 142 864 244 940 183 904 b 68 675 96 817 68 746 b 192 457 68 542 149 486 b 42 240 131 424 42 375 b 83 96 42 200 50 146 b 344 -14 143 7 249 -14 b 668 265 621 -14 668 178 b 525 506 668 418 563 482 z m 403 567 b 258 707 275 624 258 664 b 365 808 258 767 301 808 b 468 694 461 808 468 718 b 403 567 468 633 431 596 z m 310 390 b 478 235 401 349 478 313 b 353 126 478 185 439 126 b 221 256 268 126 221 181 b 310 390 221 332 271 365 z "},"9":{"ha":710,"x_min":0,"x_max":0,"o":"m 60 213 b 328 -14 81 135 119 -14 b 639 478 576 -14 639 218 b 574 810 639 536 633 710 b 332 940 514 910 438 940 b 39 638 78 940 39 725 b 289 342 39 507 113 342 b 449 425 390 342 429 399 b 336 135 450 346 454 135 b 238 246 260 135 246 203 z m 336 792 b 442 650 400 792 442 742 b 339 507 442 582 425 507 b 236 650 260 507 236 569 b 336 792 236 721 264 792 z "}," ":{"ha":354,"x_min":0,"x_max":0,"o":""},"!":{"ha":474,"x_min":0,"x_max":0,"o":"m 114 926 l 175 276 l 299 276 l 358 926 z m 142 206 l 142 0 l 331 0 l 331 206 z "},"\"":{"ha":592,"x_min":0,"x_max":0,"o":"m 256 926 l 78 926 l 103 519 l 231 519 z m 515 926 l 338 926 l 363 519 l 490 519 z "},"#":{"ha":710,"x_min":0,"x_max":0,"o":"m 235 926 l 194 658 l 69 658 l 53 546 l 178 546 l 156 397 l 31 397 l 14 283 l 138 283 l 96 0 l 215 0 l 258 283 l 396 283 l 353 0 l 472 0 l 515 283 l 640 283 l 657 397 l 532 397 l 554 546 l 679 546 l 696 658 l 571 658 l 613 926 l 492 926 l 451 658 l 314 658 l 356 926 z m 435 546 l 413 397 l 275 397 l 297 546 z "},"$":{"ha":710,"x_min":0,"x_max":0,"o":"m 303 1003 l 303 907 b 165 850 264 900 214 892 b 79 653 108 803 79 726 b 279 404 79 535 143 451 b 475 268 435 350 475 336 b 358 168 475 242 464 168 b 211 306 233 168 217 271 l 49 263 b 303 25 67 192 104 49 l 303 -100 l 407 -100 l 407 25 b 579 94 457 32 519 39 b 661 290 617 128 661 190 b 436 551 661 446 561 507 b 263 678 303 600 263 615 b 360 771 263 721 293 771 b 490 650 443 771 471 701 l 633 708 b 407 907 617 761 578 883 l 407 1003 z "},"%":{"ha":922,"x_min":0,"x_max":0,"o":"m 221 932 b 38 693 104 932 38 849 b 221 454 38 535 108 454 b 404 693 335 454 404 535 b 221 932 404 849 336 932 z m 221 829 b 272 693 263 829 272 785 b 221 557 272 600 263 557 b 169 693 179 557 169 600 b 221 829 169 783 178 829 z m 703 472 b 519 233 590 472 519 393 b 703 -6 519 74 590 -6 b 885 233 815 -6 885 75 b 703 472 885 394 813 472 z m 703 369 b 753 233 743 369 753 325 b 703 97 753 140 743 97 b 651 233 663 97 651 139 b 703 369 651 325 661 369 z m 629 926 l 192 0 l 297 0 l 733 926 z "},"&":{"ha":899,"x_min":0,"x_max":0,"o":"m 689 531 b 617 326 678 479 658 397 l 489 497 b 649 719 539 524 649 586 b 411 940 649 828 574 940 b 167 735 256 940 167 835 b 253 526 167 646 232 557 b 43 260 125 472 43 390 b 339 -14 43 221 54 -14 b 589 78 469 -14 536 36 b 769 -10 631 36 679 -10 b 839 0 799 -10 819 -4 l 839 157 b 714 206 790 154 767 151 b 839 503 764 282 807 365 z m 349 736 b 421 808 349 774 369 808 b 493 731 485 808 493 754 b 410 603 493 672 458 631 b 349 736 392 628 349 688 z m 499 193 b 369 139 475 172 439 139 b 236 272 268 139 236 213 b 331 419 236 338 274 385 z "},"’":{"ha":332,"x_min":0,"x_max":0,"o":"m 253 926 l 79 926 l 79 721 l 156 721 l 79 539 l 154 539 l 253 721 z "},"(":{"ha":474,"x_min":0,"x_max":0,"o":"m 239 926 b 71 347 124 756 71 553 b 239 -232 71 142 124 -61 l 388 -232 b 301 -22 364 -187 333 -132 b 247 347 263 114 247 238 b 301 717 247 460 264 585 b 388 926 333 825 364 882 z "},")":{"ha":474,"x_min":0,"x_max":0,"o":"m 238 -232 b 404 347 350 -61 404 140 b 238 926 404 553 350 756 l 88 926 b 174 717 111 882 142 825 b 228 347 211 583 228 460 b 174 -22 228 238 213 114 b 88 -232 140 -132 111 -187 z "},"*":{"ha":710,"x_min":0,"x_max":0,"o":"m 297 926 l 314 756 l 174 851 l 117 747 l 268 681 l 117 614 l 174 510 l 314 606 l 297 435 l 413 435 l 396 606 l 536 510 l 593 614 l 442 681 l 593 747 l 536 851 l 396 756 l 413 926 z "},"+":{"ha":710,"x_min":0,"x_max":0,"o":"m 431 536 l 431 746 l 278 746 l 278 536 l 71 536 l 71 389 l 278 389 l 278 179 l 431 179 l 431 389 l 638 389 l 638 536 z "},",":{"ha":354,"x_min":0,"x_max":0,"o":"m 83 206 l 83 0 l 172 0 l 83 -219 l 158 -219 l 272 19 l 272 206 z "},"-":{"ha":379,"x_min":0,"x_max":0,"o":"m 51 426 l 51 276 l 328 276 l 328 426 z "},".":{"ha":354,"x_min":0,"x_max":0,"o":"m 83 206 l 83 0 l 272 0 l 272 206 z "},"/":{"ha":733,"x_min":0,"x_max":0,"o":"m 538 926 l -26 -232 l 101 -232 l 667 926 z "},":":{"ha":354,"x_min":0,"x_max":0,"o":"m 83 206 l 83 0 l 272 0 l 272 206 z m 83 685 l 83 479 l 272 479 l 272 685 z "},";":{"ha":354,"x_min":0,"x_max":0,"o":"m 83 206 l 83 0 l 172 0 l 83 -219 l 158 -219 l 272 19 l 272 206 z m 83 685 l 83 479 l 272 479 l 272 685 z "},"<":{"ha":710,"x_min":0,"x_max":0,"o":"m 656 865 l 54 550 l 54 376 l 656 61 l 656 265 l 274 463 l 656 660 z "},"=":{"ha":710,"x_min":0,"x_max":0,"o":"m 639 503 l 639 650 l 71 650 l 71 503 z m 639 276 l 639 424 l 71 424 l 71 276 z "},">":{"ha":710,"x_min":0,"x_max":0,"o":"m 54 61 l 656 376 l 656 550 l 54 865 l 54 661 l 438 464 l 54 267 z "},"?":{"ha":663,"x_min":0,"x_max":0,"o":"m 214 608 b 313 775 215 661 218 775 b 392 685 333 775 392 764 b 344 557 392 653 383 603 b 260 468 333 544 271 483 b 224 265 225 421 225 393 l 386 265 b 460 425 386 346 388 360 b 597 681 522 479 597 546 b 325 940 597 746 571 940 b 40 632 165 940 49 846 z m 214 197 l 214 0 l 396 0 l 396 197 z "},"@":{"ha":875,"x_min":0,"x_max":0,"o":"m 550 706 l 542 644 b 442 715 526 674 506 715 b 244 414 319 715 244 567 b 388 186 244 276 304 186 b 507 265 461 186 492 240 b 610 188 519 229 535 188 b 850 540 725 188 850 319 b 458 956 850 736 746 956 b 25 460 181 956 25 726 b 124 133 25 349 56 225 b 468 -26 235 -17 419 -26 b 753 60 569 -26 668 6 l 715 150 b 474 75 674 122 600 75 b 146 463 233 75 146 271 b 458 854 146 683 257 854 b 736 529 697 854 736 647 b 628 292 736 392 682 292 b 597 342 603 292 597 307 b 604 422 597 354 600 394 l 644 706 z m 449 589 b 496 496 489 589 496 533 b 474 346 496 489 496 399 b 422 313 467 329 447 313 b 371 417 383 313 371 357 b 449 589 371 503 396 589 z "},"A":{"ha":710,"x_min":0,"x_max":0,"o":"m 250 926 l -28 0 l 160 0 l 206 190 l 465 190 l 513 0 l 719 0 l 456 926 z m 244 350 l 335 728 l 428 350 z "},"B":{"ha":781,"x_min":0,"x_max":0,"o":"m 88 0 l 403 0 b 628 43 486 0 557 0 b 729 257 694 83 729 176 b 665 426 729 335 699 390 b 572 483 632 463 603 472 b 704 682 615 500 704 533 b 656 847 704 740 690 800 b 403 926 599 926 494 926 l 88 926 z m 283 776 l 364 776 b 497 668 404 776 497 776 b 349 553 497 553 404 553 l 283 553 z m 283 403 l 382 403 b 522 282 428 403 522 403 b 383 160 522 190 471 160 l 283 160 z "},"C":{"ha":757,"x_min":0,"x_max":0,"o":"m 539 338 b 407 151 532 288 517 151 b 268 447 286 151 268 292 b 407 775 268 635 292 775 b 538 568 524 775 532 642 l 722 582 b 657 815 718 638 711 735 b 406 940 615 876 546 940 b 54 463 96 940 54 631 b 403 -14 54 251 121 -14 b 726 325 606 -14 711 138 z "},"D":{"ha":781,"x_min":0,"x_max":0,"o":"m 88 0 l 331 0 b 583 64 401 0 501 0 b 735 469 683 140 735 296 b 306 926 735 925 447 926 l 88 926 z m 290 767 l 325 767 b 519 472 407 767 519 757 b 325 160 519 169 406 160 l 290 160 z "},"E":{"ha":663,"x_min":0,"x_max":0,"o":"m 88 926 l 88 0 l 650 0 l 650 165 l 290 165 l 290 393 l 569 393 l 569 553 l 290 553 l 290 767 l 650 767 l 650 926 z "},"F":{"ha":615,"x_min":0,"x_max":0,"o":"m 88 926 l 88 0 l 290 0 l 290 365 l 557 365 l 557 525 l 290 525 l 290 767 l 636 767 l 636 926 z "},"G":{"ha":804,"x_min":0,"x_max":0,"o":"m 413 494 l 413 335 l 551 335 b 426 151 549 275 544 151 b 268 460 293 151 268 293 b 419 775 268 650 304 775 b 551 593 528 775 542 663 l 735 624 b 415 940 717 757 672 940 b 54 447 85 940 54 585 b 397 -14 54 192 167 -14 b 622 106 543 -14 601 74 l 649 0 l 735 0 l 735 494 z "},"H":{"ha":804,"x_min":0,"x_max":0,"o":"m 717 926 l 514 926 l 514 553 l 290 553 l 290 926 l 88 926 l 88 0 l 290 0 l 290 379 l 514 379 l 514 0 l 717 0 z "},"I":{"ha":378,"x_min":0,"x_max":0,"o":"m 88 926 l 88 0 l 290 0 l 290 926 z "},"J":{"ha":450,"x_min":0,"x_max":0,"o":"m 164 926 l 164 311 b 75 161 164 203 156 161 b -7 171 44 161 13 167 l -7 0 b 118 -14 42 -8 74 -14 b 367 311 356 -14 367 140 l 367 926 z "},"K":{"ha":733,"x_min":0,"x_max":0,"o":"m 88 926 l 88 0 l 290 0 l 290 314 l 367 426 l 531 0 l 740 0 l 489 586 l 721 926 l 515 926 l 290 540 l 290 926 z "},"L":{"ha":592,"x_min":0,"x_max":0,"o":"m 88 926 l 88 0 l 589 0 l 589 174 l 290 174 l 290 926 z "},"M":{"ha":1040,"x_min":0,"x_max":0,"o":"m 88 926 l 88 0 l 253 0 l 253 776 l 425 0 l 574 0 l 763 776 l 763 0 l 953 0 l 953 926 l 664 926 l 517 354 l 386 926 z "},"N":{"ha":781,"x_min":0,"x_max":0,"o":"m 79 926 l 79 0 l 238 0 l 238 671 l 519 0 l 701 0 l 701 926 l 543 926 l 543 351 l 306 926 z "},"O":{"ha":781,"x_min":0,"x_max":0,"o":"m 390 940 b 54 463 89 940 54 640 b 390 -14 54 276 93 -14 b 726 463 696 -14 726 293 b 390 940 726 656 685 940 z m 390 775 b 513 463 496 775 513 657 b 390 151 513 267 494 151 b 268 463 288 151 268 264 b 390 775 268 664 288 775 z "},"P":{"ha":710,"x_min":0,"x_max":0,"o":"m 88 926 l 88 0 l 290 0 l 290 342 l 363 342 b 603 396 419 342 533 342 b 700 636 675 451 700 544 b 622 856 700 700 686 789 b 354 926 553 926 451 926 z m 354 776 b 485 640 399 776 485 776 b 354 501 485 517 425 501 l 290 501 l 290 776 z "},"Q":{"ha":781,"x_min":0,"x_max":0,"o":"m 693 -32 b 624 -43 675 -37 653 -43 b 557 26 561 -43 558 -4 b 726 471 626 74 726 158 b 390 940 726 690 665 940 b 54 463 85 940 54 632 b 172 67 54 307 82 156 b 422 -12 221 19 282 -12 b 607 -192 429 -107 463 -192 b 693 -181 646 -192 669 -186 z m 268 463 b 390 775 268 664 288 775 b 513 464 496 775 513 657 b 390 151 513 267 494 151 b 268 463 288 151 268 264 z "},"R":{"ha":757,"x_min":0,"x_max":0,"o":"m 88 926 l 88 0 l 290 0 l 290 365 l 393 365 l 517 0 l 739 0 l 568 404 b 699 646 614 432 699 482 b 632 847 699 719 681 793 b 378 926 561 926 471 926 z m 372 776 b 500 649 407 776 500 776 b 381 515 500 572 468 515 l 290 515 l 290 776 z "},"S":{"ha":710,"x_min":0,"x_max":0,"o":"m 654 725 b 356 940 635 786 586 940 b 60 657 153 940 60 801 b 339 368 60 468 213 414 b 467 251 408 343 467 317 b 349 151 467 190 418 151 b 200 290 238 151 211 249 l 22 240 b 101 83 33 200 50 143 b 343 -14 176 -1 276 -14 b 672 282 561 -14 672 124 b 417 567 672 469 521 526 b 257 690 318 604 257 626 b 354 775 257 728 286 775 b 485 660 447 775 474 693 z "},"T":{"ha":544,"x_min":0,"x_max":0,"o":"m -17 926 l -17 753 l 168 753 l 168 0 l 371 0 l 371 753 l 560 753 l 560 926 z "},"U":{"ha":804,"x_min":0,"x_max":0,"o":"m 88 926 l 88 397 b 404 -14 88 200 89 -14 b 604 39 500 -14 561 11 b 717 406 717 114 717 242 l 717 926 l 546 926 l 546 397 b 529 213 546 296 546 249 b 422 151 514 181 485 151 b 290 397 290 151 290 263 l 290 926 z "},"V":{"ha":639,"x_min":0,"x_max":0,"o":"m -19 926 l 203 -1 l 431 -6 l 658 926 l 483 926 l 336 219 l 194 926 z "},"W":{"ha":993,"x_min":0,"x_max":0,"o":"m -7 926 l 193 -6 l 374 -6 l 500 639 l 624 -6 l 806 -6 l 1004 926 l 833 926 l 719 283 l 606 926 l 419 926 l 297 285 l 200 926 z "},"X":{"ha":663,"x_min":0,"x_max":0,"o":"m 7 926 l 233 475 l -21 0 l 174 0 l 325 303 l 461 0 l 683 0 l 438 507 l 656 926 l 461 926 l 344 685 l 233 926 z "},"Y":{"ha":615,"x_min":0,"x_max":0,"o":"m -39 926 l 193 392 l 193 0 l 396 0 l 396 392 l 653 926 l 454 926 l 315 588 l 185 926 z "},"Z":{"ha":639,"x_min":0,"x_max":0,"o":"m 31 926 l 31 761 l 392 761 l 1 142 l 1 0 l 638 0 l 638 165 l 238 165 l 625 782 l 625 926 z "},"[":{"ha":474,"x_min":0,"x_max":0,"o":"m 101 926 l 101 -232 l 388 -232 l 388 -146 l 271 -146 l 271 840 l 388 840 l 388 926 z "},"\\":{"ha":733,"x_min":0,"x_max":0,"o":"m 196 926 l 68 926 l 632 -232 l 761 -232 z "},"]":{"ha":474,"x_min":0,"x_max":0,"o":"m 372 -232 l 372 926 l 86 926 l 86 840 l 203 840 l 203 -146 l 86 -146 l 86 -232 z "},"^":{"ha":710,"x_min":0,"x_max":0,"o":"m 689 439 l 426 936 l 283 936 l 21 439 l 188 439 l 354 781 l 521 439 z "},"_":{"ha":694,"x_min":0,"x_max":0,"o":"m 0 -104 l 0 -174 l 694 -174 l 694 -104 z "},"‘":{"ha":332,"x_min":0,"x_max":0,"o":"m 253 761 l 176 761 l 253 942 l 178 942 l 79 761 l 79 556 l 253 556 z "},"a":{"ha":663,"x_min":0,"x_max":0,"o":"m 251 468 b 333 574 257 522 269 574 b 401 451 401 574 401 511 l 401 425 b 49 174 197 414 49 364 b 228 -14 49 39 136 -14 b 417 106 347 -14 392 61 b 426 0 417 43 418 28 l 603 0 b 592 153 596 24 592 36 l 592 425 b 547 628 592 508 589 586 b 349 700 496 682 421 700 b 186 663 292 700 235 690 b 72 486 89 607 78 525 z m 401 294 b 372 150 401 232 399 189 b 310 113 354 124 333 113 b 246 199 264 113 246 150 b 401 328 246 288 292 314 z "},"b":{"ha":663,"x_min":0,"x_max":0,"o":"m 71 926 l 71 0 l 183 0 b 219 89 199 49 206 63 b 378 -14 236 54 268 -14 b 489 13 414 -14 451 -7 b 622 347 614 78 622 283 b 401 694 622 513 569 694 b 258 621 319 694 282 650 l 258 926 z m 258 443 b 281 539 258 478 258 513 b 342 568 294 557 317 568 b 425 342 396 568 425 522 b 339 118 425 165 399 118 b 258 285 258 118 258 207 z "},"c":{"ha":615,"x_min":0,"x_max":0,"o":"m 582 433 b 508 629 578 492 572 560 b 324 700 454 688 386 700 b 42 342 108 700 42 526 b 314 -14 42 196 81 -14 b 582 256 553 -14 574 185 l 404 267 b 325 140 400 196 386 140 b 233 351 244 140 233 249 b 329 554 233 508 272 554 b 404 426 374 554 397 525 z "},"d":{"ha":663,"x_min":0,"x_max":0,"o":"m 404 926 l 404 622 b 267 694 386 650 358 694 b 40 339 40 694 40 393 b 258 -10 40 203 75 -10 b 415 113 367 -10 396 63 l 415 0 l 592 0 l 592 926 z m 404 276 b 319 122 404 226 404 122 b 238 369 238 122 238 236 b 321 568 238 479 247 568 b 404 397 404 568 404 458 z "},"e":{"ha":639,"x_min":0,"x_max":0,"o":"m 599 311 b 549 575 599 394 597 482 b 325 700 518 633 444 700 b 93 569 232 700 142 657 b 42 333 47 486 42 378 b 326 -14 42 151 117 -14 b 599 225 547 -14 585 161 l 428 236 b 331 118 422 192 413 118 b 239 311 236 118 238 218 z m 240 421 b 329 574 242 469 243 574 b 418 421 422 574 419 458 z "},"f":{"ha":403,"x_min":0,"x_max":0,"o":"m 286 685 b 372 810 286 776 289 810 b 414 807 390 810 401 808 l 414 956 b 324 963 389 958 364 963 b 176 919 253 963 213 949 b 103 685 110 867 106 801 l 25 685 l 25 535 l 103 535 l 103 0 l 286 0 l 286 535 l 407 535 l 407 685 z "},"g":{"ha":639,"x_min":0,"x_max":0,"o":"m 653 797 b 600 804 639 800 626 804 b 471 668 496 804 481 739 b 324 700 438 683 399 700 b 68 489 206 700 68 651 b 169 318 68 374 128 340 b 51 167 124 292 51 250 b 140 49 51 90 118 60 b 29 -79 97 33 29 6 b 310 -242 29 -242 251 -242 b 644 -14 421 -242 644 -226 b 574 138 644 44 626 101 b 322 183 525 172 478 175 b 208 229 249 189 208 192 b 253 286 208 235 208 261 b 343 274 276 281 301 274 b 590 479 474 274 590 342 b 539 617 590 494 590 564 b 611 679 551 676 589 679 b 653 674 629 679 642 676 z m 333 597 b 393 486 372 597 393 571 b 331 376 393 414 381 376 b 265 482 269 376 265 440 b 333 597 265 561 283 597 z m 247 29 b 404 17 272 26 382 19 b 479 -50 433 15 479 3 b 339 -122 479 -101 438 -122 b 188 -53 236 -122 188 -101 b 247 29 188 -1 225 18 z "},"h":{"ha":663,"x_min":0,"x_max":0,"o":"m 71 926 l 71 0 l 261 0 l 261 435 b 347 551 261 490 264 551 b 411 440 411 551 411 506 l 411 0 l 601 0 l 601 440 b 429 700 601 558 601 700 b 261 613 318 700 281 643 l 261 926 z "},"i":{"ha":331,"x_min":0,"x_max":0,"o":"m 71 685 l 71 0 l 261 0 l 261 685 z m 263 743 l 263 932 l 69 932 l 69 743 z "},"j":{"ha":332,"x_min":0,"x_max":0,"o":"m 76 685 l 76 28 b 14 -87 76 -62 72 -87 b -12 -85 4 -87 -1 -86 l -12 -242 b 90 -251 19 -246 50 -251 b 267 22 267 -251 267 -112 l 267 685 z m 268 743 l 268 932 l 75 932 l 75 743 z "},"k":{"ha":639,"x_min":0,"x_max":0,"o":"m 71 926 l 71 0 l 261 0 l 261 221 l 331 318 l 439 0 l 644 0 l 454 456 l 628 685 l 454 685 l 261 421 l 261 926 z "},"l":{"ha":332,"x_min":0,"x_max":0,"o":"m 71 926 l 71 0 l 261 0 l 261 926 z "},"m":{"ha":969,"x_min":0,"x_max":0,"o":"m 71 0 l 261 0 l 261 399 b 335 550 261 494 267 550 b 394 433 392 550 394 517 l 394 0 l 585 0 l 585 399 b 657 551 585 497 588 551 b 718 429 718 551 718 507 l 718 0 l 908 0 l 908 449 b 733 700 908 572 908 700 b 565 592 622 700 586 638 b 418 700 554 632 535 700 b 251 592 306 700 271 631 l 251 685 l 71 685 z "},"n":{"ha":663,"x_min":0,"x_max":0,"o":"m 71 685 l 71 0 l 261 0 l 261 401 b 346 551 261 485 261 551 b 411 450 406 551 411 511 l 411 0 l 601 0 l 601 450 b 574 628 601 518 601 585 b 422 700 526 700 449 700 b 251 592 315 700 279 649 l 251 685 z "},"o":{"ha":639,"x_min":0,"x_max":0,"o":"m 319 700 b 40 343 115 700 40 557 b 318 -14 40 122 121 -14 b 597 343 518 -14 597 124 b 319 700 597 557 522 700 z m 319 567 b 400 343 378 567 400 519 b 319 119 400 160 375 119 b 238 343 263 119 238 161 b 318 567 238 511 257 567 z "},"p":{"ha":663,"x_min":0,"x_max":0,"o":"m 71 685 l 71 -232 l 258 -232 l 258 50 b 389 -10 279 28 314 -10 b 621 351 607 -10 621 254 b 532 642 621 467 599 574 b 401 694 499 675 447 694 b 247 582 308 694 271 626 l 247 685 z m 258 410 b 344 568 258 471 258 568 b 424 351 418 568 424 472 b 339 122 424 207 417 122 b 258 279 258 122 258 181 z "},"q":{"ha":663,"x_min":0,"x_max":0,"o":"m 488 685 b 435 596 469 640 460 625 b 272 694 411 632 369 694 b 40 331 47 694 40 425 b 257 -10 40 114 129 -10 b 399 71 340 -10 379 43 l 399 -232 l 586 -232 l 586 510 b 592 685 586 588 586 626 z m 399 311 b 318 122 399 211 392 122 b 238 360 240 122 238 211 b 318 568 238 519 250 568 b 399 413 381 568 399 521 z "},"r":{"ha":426,"x_min":0,"x_max":0,"o":"m 71 685 l 71 0 l 261 0 l 261 296 b 401 507 261 349 261 507 b 433 504 408 507 417 507 l 433 690 b 400 694 424 693 414 694 b 239 519 289 694 256 578 l 239 685 z "},"s":{"ha":568,"x_min":0,"x_max":0,"o":"m 522 521 b 290 700 497 633 406 700 b 47 482 168 700 47 629 b 253 267 47 335 181 289 b 363 176 321 244 363 231 b 286 113 363 117 306 113 b 178 215 200 113 183 189 l 26 190 b 283 -14 35 139 58 -14 b 543 210 472 -14 543 108 b 340 419 543 349 436 386 b 226 514 264 447 226 460 b 286 574 226 542 242 574 b 386 481 356 574 375 515 z "},"t":{"ha":426,"x_min":0,"x_max":0,"o":"m 124 886 l 108 685 l 24 685 l 24 535 l 99 535 l 99 263 b 132 57 99 175 99 106 b 303 -14 171 1 240 -14 b 421 0 354 -14 393 -6 l 421 146 b 285 283 285 138 285 154 l 285 535 l 411 535 l 411 685 l 285 685 l 285 901 z "},"u":{"ha":663,"x_min":0,"x_max":0,"o":"m 61 685 l 61 239 b 236 -14 61 114 61 -14 b 413 94 347 -14 378 36 l 413 0 l 592 0 l 592 685 l 401 685 l 401 335 b 317 133 401 188 401 133 b 251 244 251 133 251 176 l 251 685 z "},"v":{"ha":497,"x_min":0,"x_max":0,"o":"m -15 685 l 179 0 l 329 0 l 518 685 l 358 685 l 264 281 l 169 685 z "},"w":{"ha":804,"x_min":0,"x_max":0,"o":"m -11 685 l 161 0 l 317 0 l 403 465 l 490 0 l 650 0 l 822 685 l 672 685 l 579 268 l 518 685 l 332 685 l 256 268 l 175 685 z "},"x":{"ha":521,"x_min":0,"x_max":0,"o":"m -7 685 l 169 350 l -33 0 l 132 0 l 247 206 l 347 0 l 554 0 l 350 383 l 526 685 l 361 685 l 274 526 l 200 685 z "},"y":{"ha":497,"x_min":0,"x_max":0,"o":"m -18 685 l 178 13 b 64 -86 154 -69 139 -86 b 10 -82 42 -86 28 -85 l 10 -232 b 92 -243 33 -237 54 -243 b 313 -12 243 -243 274 -142 l 518 685 l 354 685 l 265 265 l 172 685 z "},"z":{"ha":497,"x_min":0,"x_max":0,"o":"m 51 685 l 51 549 l 276 549 l 28 136 l 28 0 l 485 0 l 485 136 l 225 136 l 479 563 l 479 685 z "},"{":{"ha":474,"x_min":0,"x_max":0,"o":"m 63 289 b 131 208 126 286 131 261 l 131 146 l 131 -21 b 294 -232 131 -201 183 -232 l 372 -232 l 372 -140 b 297 -21 301 -137 297 -124 l 297 139 b 215 347 297 294 294 314 b 297 554 296 379 297 399 l 297 715 b 372 835 297 817 301 833 l 372 926 l 307 926 b 131 715 181 926 131 899 l 131 549 b 63 404 131 422 131 407 z "},"|":{"ha":694,"x_min":0,"x_max":0,"o":"m 451 1042 l 243 1042 l 243 -347 l 451 -347 z "},"}":{"ha":474,"x_min":0,"x_max":0,"o":"m 415 404 b 347 549 347 407 347 422 l 347 715 b 171 926 347 899 297 926 l 106 926 l 106 835 b 181 715 176 833 181 817 l 181 554 b 263 347 181 399 182 379 b 181 139 183 314 181 294 l 181 -21 b 106 -140 181 -124 176 -137 l 106 -232 l 183 -232 b 347 -21 294 -232 347 -201 l 347 146 l 347 208 b 415 289 347 261 351 286 z "},"~":{"ha":710,"x_min":0,"x_max":0,"o":"m 119 322 b 217 408 138 354 167 408 b 375 353 249 408 275 397 b 474 329 401 342 438 329 b 690 515 614 329 663 447 l 589 600 b 489 514 574 569 542 514 b 382 549 464 514 444 522 b 226 596 272 596 247 596 b 19 407 128 596 65 519 z "},"¡":{"ha":474,"x_min":0,"x_max":0,"o":"m 358 -242 l 299 408 l 175 408 l 114 -242 z m 331 479 l 331 685 l 142 685 l 142 479 z "},"¢":{"ha":710,"x_min":0,"x_max":0,"o":"m 317 932 l 317 807 b 93 464 106 789 93 536 b 215 175 93 432 94 260 b 317 138 253 150 289 143 l 317 -10 l 415 -10 l 415 138 b 540 200 450 143 494 151 b 617 388 597 263 608 328 l 457 401 b 369 279 449 343 440 279 b 283 475 299 279 283 350 b 371 674 283 611 303 674 b 457 549 446 674 453 592 l 617 560 b 536 753 611 611 603 686 b 415 807 493 794 446 803 l 415 932 z "},"£":{"ha":710,"x_min":0,"x_max":0,"o":"m 375 567 b 367 697 375 585 367 676 b 428 792 367 724 367 792 b 514 696 490 792 507 725 l 661 765 b 428 940 644 824 610 940 b 175 678 235 940 175 801 b 183 567 175 639 179 597 l 101 567 l 101 425 l 207 425 b 211 354 210 404 211 385 b 82 158 211 158 135 158 l 11 158 l 11 0 l 396 0 b 746 240 554 0 693 6 l 596 297 b 396 158 554 176 499 158 l 293 158 b 396 425 392 246 400 311 l 532 425 l 532 567 z "},"⁄":{"ha":165,"x_min":0,"x_max":0,"o":"m 240 926 l -196 0 l -75 0 l 361 926 z "},"¥":{"ha":710,"x_min":0,"x_max":0,"o":"m 33 926 l 185 565 l 54 565 l 54 464 l 228 464 l 263 381 l 54 381 l 54 279 l 263 279 l 263 0 l 446 0 l 446 279 l 664 279 l 664 381 l 446 381 l 481 464 l 664 464 l 664 565 l 525 565 l 676 926 l 518 926 l 369 550 l 231 926 z "},"ƒ":{"ha":710,"x_min":0,"x_max":0,"o":"m 142 517 l 239 517 l 178 81 b 92 -46 165 -7 160 -46 b 50 -42 81 -46 71 -44 l 26 -193 b 106 -203 47 -197 69 -203 b 353 61 294 -203 335 -68 l 418 517 l 536 517 l 557 667 l 439 667 b 517 796 449 746 457 796 b 575 783 542 796 560 789 l 596 933 b 490 949 565 940 531 949 b 261 667 308 949 286 815 l 163 667 z "},"§":{"ha":710,"x_min":0,"x_max":0,"o":"m 636 767 b 379 940 617 822 574 940 b 129 713 197 940 129 826 b 204 551 129 621 174 581 b 97 365 168 529 97 485 b 111 285 97 343 100 314 b 242 157 138 219 197 178 b 463 -10 417 81 463 60 b 358 -103 463 -97 385 -103 b 231 4 256 -103 239 -31 l 74 -24 b 135 -153 83 -61 97 -112 b 358 -235 193 -218 293 -235 b 633 13 515 -235 633 -150 b 533 204 633 129 569 178 b 626 386 578 242 626 286 b 433 622 626 533 522 581 b 300 738 331 669 300 683 b 388 814 300 776 326 814 b 494 724 468 814 483 761 z m 294 494 b 433 419 317 482 414 432 b 474 344 460 400 474 372 b 436 263 474 335 474 294 b 328 314 419 271 343 304 b 256 413 271 346 256 374 b 294 493 256 457 276 476 z "},"¤":{"ha":710,"x_min":0,"x_max":0,"o":"m 469 689 b 354 718 432 708 397 718 b 243 690 297 718 268 703 l 153 781 l 51 679 l 142 589 b 114 478 129 564 114 535 b 143 363 114 419 133 381 l 54 272 l 150 176 l 240 265 b 354 236 258 256 297 236 b 467 264 410 236 436 249 l 557 174 l 658 275 l 568 365 b 596 478 581 390 596 421 b 567 592 596 536 581 565 l 656 682 l 558 778 z m 354 369 b 247 476 294 369 247 418 b 354 585 247 536 296 585 b 463 478 414 585 463 536 b 354 369 463 418 415 369 z "},"'":{"ha":332,"x_min":0,"x_max":0,"o":"m 256 926 l 78 926 l 103 519 l 231 519 z "},"“":{"ha":592,"x_min":0,"x_max":0,"o":"m 501 761 l 425 761 l 501 942 l 426 942 l 328 761 l 328 556 l 501 556 z m 264 761 l 188 761 l 264 942 l 189 942 l 90 761 l 90 556 l 264 556 z "},"«":{"ha":615,"x_min":0,"x_max":0,"o":"m 547 113 l 463 356 l 547 599 l 447 599 l 304 356 l 447 113 z m 311 113 l 226 356 l 311 599 l 211 599 l 68 356 l 211 113 z "},"‹":{"ha":379,"x_min":0,"x_max":0,"o":"m 311 113 l 226 356 l 311 599 l 211 599 l 68 356 l 211 113 z "},"›":{"ha":379,"x_min":0,"x_max":0,"o":"m 68 599 l 153 356 l 68 113 l 168 113 l 311 356 l 168 599 z "},"–":{"ha":615,"x_min":0,"x_max":0,"o":"m 56 422 l 56 281 l 560 281 l 560 422 z "},"†":{"ha":710,"x_min":0,"x_max":0,"o":"m 264 926 l 264 678 l 72 678 l 72 518 l 264 518 l 264 -232 l 447 -232 l 447 518 l 639 518 l 639 678 l 447 678 l 447 926 z "},"‡":{"ha":710,"x_min":0,"x_max":0,"o":"m 264 926 l 264 678 l 72 678 l 72 518 l 264 518 l 264 176 l 72 176 l 72 17 l 264 17 l 264 -232 l 447 -232 l 447 17 l 639 17 l 639 176 l 447 176 l 447 518 l 639 518 l 639 678 l 447 678 l 447 926 z "},"·":{"ha":356,"x_min":0,"x_max":0,"o":"m 83 564 l 83 358 l 272 358 l 272 564 z "},"¶":{"ha":757,"x_min":0,"x_max":0,"o":"m 650 926 l 328 926 b 132 889 265 926 186 926 b 29 647 53 836 29 733 b 318 358 29 358 218 358 l 367 358 l 367 -232 l 475 -232 l 475 817 l 542 817 l 542 -232 l 650 -232 z "},"•":{"ha":201,"x_min":0,"x_max":0,"o":"m 0 585 l 0 368 l 201 368 l 201 585 z "},"‚":{"ha":332,"x_min":0,"x_max":0,"o":"m 79 206 l 79 0 l 156 0 l 79 -182 l 154 -182 l 253 0 l 253 206 z "},"„":{"ha":592,"x_min":0,"x_max":0,"o":"m 90 206 l 90 0 l 167 0 l 90 -181 l 165 -181 l 264 0 l 264 206 z m 328 206 l 328 0 l 404 0 l 328 -181 l 403 -181 l 501 0 l 501 206 z "},"”":{"ha":592,"x_min":0,"x_max":0,"o":"m 264 926 l 90 926 l 90 721 l 167 721 l 90 539 l 165 539 l 264 721 z m 501 926 l 328 926 l 328 721 l 404 721 l 328 539 l 403 539 l 501 721 z "},"»":{"ha":615,"x_min":0,"x_max":0,"o":"m 68 599 l 153 356 l 68 113 l 168 113 l 311 356 l 168 599 z m 304 599 l 389 356 l 304 113 l 404 113 l 547 356 l 404 599 z "},"…":{"ha":1065,"x_min":0,"x_max":0,"o":"m 83 206 l 83 0 l 272 0 l 272 206 z m 439 206 l 439 0 l 628 0 l 628 206 z m 794 206 l 794 0 l 983 0 l 983 206 z "},"‰":{"ha":1349,"x_min":0,"x_max":0,"o":"m 221 932 b 38 693 104 932 38 849 b 221 454 38 535 108 454 b 404 693 335 454 404 535 b 221 932 404 849 336 932 z m 221 829 b 272 693 263 829 272 785 b 221 557 272 600 263 557 b 169 693 179 557 169 600 b 221 829 169 783 178 829 z m 703 472 b 519 233 590 472 519 393 b 703 -6 519 74 590 -6 b 885 233 815 -6 885 75 b 703 472 885 394 813 472 z m 703 369 b 753 233 743 369 753 325 b 703 97 753 140 743 97 b 651 233 663 97 651 139 b 703 369 651 325 661 369 z m 1124 472 b 940 233 1013 472 940 394 b 1124 -6 940 72 1014 -6 b 1307 233 1239 -6 1307 78 b 1124 472 1307 392 1236 472 z m 1124 369 b 1175 233 1165 369 1175 325 b 1124 97 1175 142 1165 97 b 1072 233 1082 97 1072 142 b 1124 369 1072 297 1072 369 z m 629 926 l 192 0 l 297 0 l 733 926 z "},"¿":{"ha":663,"x_min":0,"x_max":0,"o":"m 449 76 b 350 -90 447 24 444 -90 b 271 0 322 -90 271 -75 b 318 128 271 17 274 75 b 403 217 329 140 392 201 b 439 419 438 264 438 292 l 276 419 b 201 260 276 339 275 325 b 65 4 140 204 65 139 b 338 -256 65 -67 96 -256 b 622 53 499 -256 613 -161 z m 449 488 l 449 685 l 268 685 l 268 488 z "},"`":{"ha":639,"x_min":0,"x_max":0,"o":"m 414 815 l 183 1029 l 107 915 l 357 758 z "},"´":{"ha":639,"x_min":0,"x_max":0,"o":"m 253 815 l 310 758 l 560 915 l 483 1029 z "},"ˆ":{"ha":639,"x_min":0,"x_max":0,"o":"m 47 768 l 196 768 l 319 847 l 443 768 l 592 768 l 319 981 z "},"˜":{"ha":639,"x_min":0,"x_max":0,"o":"m 482 940 b 417 890 464 915 446 890 b 358 907 399 890 381 897 b 244 940 283 938 275 940 b 96 843 207 940 163 926 l 156 799 b 219 842 181 828 194 842 b 388 790 269 842 329 790 b 543 894 431 790 485 808 z "},"¯":{"ha":639,"x_min":0,"x_max":0,"o":"m 129 911 l 129 811 l 510 811 l 510 911 z "},"˘":{"ha":639,"x_min":0,"x_max":0,"o":"m 94 950 b 319 781 113 894 150 781 b 544 950 489 781 526 897 l 435 950 b 319 879 424 926 403 879 b 233 907 278 879 251 892 b 204 950 217 921 210 939 z "},"˙":{"ha":639,"x_min":0,"x_max":0,"o":"m 319 778 b 406 861 361 778 406 810 b 319 946 406 908 367 946 b 233 861 272 946 233 908 b 319 778 233 811 276 778 z "},"¨":{"ha":639,"x_min":0,"x_max":0,"o":"m 204 789 b 282 861 238 789 282 814 b 204 935 282 903 247 935 b 126 861 161 935 126 903 b 204 789 126 814 171 789 z m 433 789 b 511 861 465 789 511 813 b 433 935 511 903 475 935 b 356 861 390 935 356 903 b 433 789 356 814 400 789 z "},"˚":{"ha":639,"x_min":0,"x_max":0,"o":"m 319 751 b 450 882 374 751 450 794 b 319 1015 450 964 383 1015 b 189 882 256 1015 189 964 b 319 751 189 796 264 751 z m 319 828 b 268 882 297 828 268 847 b 319 939 268 918 296 939 b 371 883 344 939 371 917 b 319 828 371 847 342 828 z "},"¸":{"ha":639,"x_min":0,"x_max":0,"o":"m 289 0 l 244 -124 b 290 -119 260 -121 274 -119 b 369 -179 333 -119 369 -142 b 321 -219 369 -210 343 -219 b 211 -186 279 -219 238 -199 l 189 -243 b 338 -290 225 -264 269 -290 b 478 -175 435 -290 478 -235 b 340 -68 478 -150 471 -58 l 368 0 z "},"˝":{"ha":639,"x_min":0,"x_max":0,"o":"m 344 996 l 176 810 l 228 758 l 421 913 z m 557 996 l 388 810 l 440 758 l 633 913 z "},"˛":{"ha":639,"x_min":0,"x_max":0,"o":"m 497 -179 b 453 -182 489 -181 463 -182 b 364 -110 396 -182 364 -154 b 425 0 364 -60 403 -22 l 353 0 b 257 -131 318 -21 257 -58 b 432 -253 257 -253 408 -253 b 511 -242 464 -253 485 -249 z "},"ˇ":{"ha":639,"x_min":0,"x_max":0,"o":"m 47 967 l 319 754 l 592 967 l 443 967 l 319 886 l 196 967 z "},"—":{"ha":922,"x_min":0,"x_max":0,"o":"m 51 422 l 51 281 l 871 281 l 871 422 z "},"Æ":{"ha":947,"x_min":0,"x_max":0,"o":"m 308 926 l -56 0 l 121 0 l 196 214 l 397 214 l 397 0 l 933 0 l 933 165 l 592 165 l 592 393 l 861 393 l 861 553 l 592 553 l 592 767 l 933 767 l 933 926 z m 246 364 l 401 790 l 401 364 z "},"ª":{"ha":710,"x_min":0,"x_max":0,"o":"m 311 789 b 356 839 315 818 322 839 b 396 765 396 839 396 811 b 142 594 250 757 142 718 b 281 463 142 494 218 463 b 421 536 364 463 400 510 b 428 472 422 506 424 497 l 563 472 b 550 581 553 496 550 504 l 550 754 b 365 940 550 829 550 940 b 160 801 318 940 189 932 z m 301 610 b 396 678 301 675 354 676 b 339 564 396 638 396 564 b 301 610 308 564 301 583 z "},"Ł":{"ha":592,"x_min":0,"x_max":0,"o":"m 88 926 l 88 465 l 8 385 l 8 222 l 88 301 l 88 0 l 589 0 l 589 174 l 290 174 l 290 440 l 442 592 l 442 756 l 290 604 l 290 926 z "},"Ø":{"ha":781,"x_min":0,"x_max":0,"o":"m 706 979 l 599 979 l 557 899 b 388 940 506 928 447 940 b 54 463 72 940 54 604 b 153 89 54 221 119 135 l 81 -57 l 186 -57 l 229 24 b 392 -14 260 8 310 -14 b 726 463 704 -14 726 313 b 631 832 726 594 710 729 z m 260 294 b 250 436 250 361 250 382 b 389 786 250 610 253 786 b 474 751 436 786 458 765 z m 521 625 b 531 493 531 558 531 542 b 396 139 531 335 531 139 b 310 165 389 139 343 139 z "},"Œ":{"ha":1089,"x_min":0,"x_max":0,"o":"m 1076 926 l 536 926 b 411 940 504 932 460 940 b 96 728 278 940 146 879 b 54 444 67 636 54 540 b 160 86 54 319 90 165 b 403 -14 232 3 336 -14 b 451 -11 415 -14 432 -12 b 525 0 472 -8 497 -6 l 1076 0 l 1076 165 l 713 165 l 713 393 l 996 393 l 996 553 l 713 553 l 713 767 l 1076 767 z m 517 186 b 417 151 482 154 440 151 b 268 447 292 151 268 311 b 317 726 268 478 268 647 b 414 775 343 772 392 775 b 517 739 475 775 504 749 z "},"º":{"ha":710,"x_min":0,"x_max":0,"o":"m 356 940 b 151 697 224 940 151 867 b 356 463 151 561 204 463 b 558 706 493 463 558 544 b 356 940 558 842 504 940 z m 356 851 b 411 701 396 851 411 818 b 354 551 411 581 394 551 b 299 701 315 551 299 582 b 356 851 299 813 313 851 z "},"æ":{"ha":969,"x_min":0,"x_max":0,"o":"m 929 311 b 894 550 929 410 922 486 b 663 700 854 640 781 700 b 492 629 561 700 518 656 b 328 700 453 686 394 700 b 67 481 113 700 78 551 l 233 463 b 317 574 239 535 260 574 b 389 426 394 574 392 507 b 183 386 296 415 243 410 b 50 179 78 344 50 246 b 251 -14 50 100 89 -14 b 468 103 393 -14 449 71 b 665 -14 488 67 528 -14 b 924 221 875 -14 907 142 l 760 233 b 665 118 754 194 743 118 b 575 311 596 118 569 181 z m 574 421 b 663 574 578 472 585 574 b 750 421 738 574 749 494 z m 389 328 b 304 113 392 251 394 113 b 240 201 250 113 240 163 b 389 328 240 306 310 315 z "},"ı":{"ha":331,"x_min":0,"x_max":0,"o":"m 71 685 l 71 0 l 261 0 l 261 685 z "},"ł":{"ha":379,"x_min":0,"x_max":0,"o":"m 94 926 l 94 489 l 11 404 l 11 268 l 94 353 l 94 0 l 285 0 l 285 479 l 368 560 l 368 694 l 285 615 l 285 926 z "},"ø":{"ha":639,"x_min":0,"x_max":0,"o":"m 490 757 l 449 675 b 318 700 426 685 390 700 b 40 343 110 700 40 549 b 131 53 40 154 99 89 l 64 -79 l 154 -79 l 197 7 b 319 -14 231 -4 261 -14 b 599 343 519 -14 599 124 b 515 626 599 528 542 596 l 581 757 z m 218 207 b 211 333 214 243 211 281 b 322 576 211 522 236 576 b 382 561 349 576 364 569 z m 424 463 b 428 353 426 415 428 390 b 319 110 428 157 399 110 b 264 119 299 110 282 113 z "},"œ":{"ha":994,"x_min":0,"x_max":0,"o":"m 953 311 b 903 575 953 393 953 481 b 679 700 874 629 803 700 b 504 621 574 700 529 649 b 314 700 474 656 426 700 b 40 343 93 700 40 519 b 313 -14 40 154 101 -14 b 496 60 426 -14 467 29 b 685 -14 529 29 575 -14 b 953 225 901 -14 940 168 l 782 236 b 685 118 776 190 767 118 b 589 311 586 118 588 222 z m 319 567 b 400 343 376 567 400 521 b 319 119 400 158 375 119 b 238 343 263 119 238 160 b 319 567 238 510 257 567 z m 590 421 b 683 574 590 465 593 574 b 772 421 776 574 774 456 z "},"ß":{"ha":757,"x_min":0,"x_max":0,"o":"m 14 472 l 89 472 l 89 -81 l 279 -81 l 279 628 b 301 801 279 715 279 765 b 385 849 329 849 368 849 b 478 751 446 849 478 807 b 347 636 478 658 388 642 b 322 521 338 607 322 567 b 458 344 322 453 358 404 b 571 210 526 304 571 278 b 479 118 571 171 553 118 b 376 143 435 118 401 132 l 329 14 b 482 -14 378 -3 431 -14 b 742 247 626 -14 742 78 b 533 508 742 415 624 471 b 449 561 476 533 464 540 b 656 781 569 601 656 665 b 415 981 656 833 628 981 b 203 913 339 981 260 958 b 89 622 90 822 89 686 l 14 622 z "},"¬":{"ha":710,"x_min":0,"x_max":0,"o":"m 486 276 l 639 276 l 639 650 l 71 650 l 71 503 l 486 503 z "},"µ":{"ha":663,"x_min":0,"x_max":0,"o":"m 401 685 l 401 336 b 393 182 401 297 401 208 b 326 135 383 146 354 135 b 260 181 308 135 271 140 b 251 336 251 208 251 297 l 251 685 l 61 685 l 61 -232 l 240 -232 l 240 94 b 326 -14 251 42 263 -14 b 413 94 390 -14 401 42 l 413 0 l 592 0 l 592 685 z "},"™":{"ha":1018,"x_min":0,"x_max":0,"o":"m 365 926 l 18 926 l 18 828 l 129 828 l 129 399 l 251 399 l 251 828 l 365 828 z m 407 399 l 507 399 l 507 838 l 611 399 l 699 399 l 813 838 l 813 399 l 928 399 l 928 926 l 750 926 l 665 603 l 589 926 l 407 926 z "},"Ð":{"ha":781,"x_min":0,"x_max":0,"o":"m 88 553 l 8 553 l 8 393 l 88 393 l 88 0 l 331 0 b 585 64 401 0 501 0 b 735 468 683 140 735 296 b 306 926 735 926 444 926 l 88 926 z m 290 767 l 325 767 b 521 471 404 767 521 760 b 325 160 521 165 401 160 l 290 160 l 290 393 l 426 393 l 426 553 l 290 553 z "},"½":{"ha":1113,"x_min":0,"x_max":0,"o":"m 211 932 b 75 829 174 886 138 860 l 75 700 b 175 760 115 718 132 728 l 175 481 l 75 481 l 75 371 l 425 371 l 425 481 l 328 481 l 328 932 z m 714 926 l 278 0 l 399 0 l 835 926 z m 774 343 b 835 446 779 415 796 446 b 878 392 861 446 878 431 b 635 121 878 338 857 292 l 635 0 l 1035 0 l 1046 126 l 799 126 b 1038 399 911 194 1038 271 b 842 564 1038 463 996 564 b 633 369 667 564 642 422 z "},"±":{"ha":710,"x_min":0,"x_max":0,"o":"m 431 536 l 431 746 l 278 746 l 278 536 l 71 536 l 71 389 l 278 389 l 278 194 l 431 194 l 431 389 l 638 389 l 638 536 z m 638 -17 l 638 131 l 71 131 l 71 -17 z "},"Þ":{"ha":710,"x_min":0,"x_max":0,"o":"m 88 926 l 88 0 l 290 0 l 290 215 l 363 215 b 603 269 419 215 533 215 b 700 510 675 325 700 418 b 622 729 700 574 686 663 b 354 800 553 800 450 800 l 290 800 l 290 926 z m 354 650 b 485 514 399 650 485 650 b 354 375 485 394 429 375 l 290 375 l 290 650 z "},"¼":{"ha":1113,"x_min":0,"x_max":0,"o":"m 739 224 l 863 436 l 863 224 z m 714 926 l 278 0 l 399 0 l 835 926 z m 842 564 l 636 231 l 636 125 l 849 125 l 849 0 l 1001 0 l 1001 125 l 1068 125 l 1068 239 l 1001 239 l 1001 564 z m 207 932 b 71 829 169 886 133 860 l 71 700 b 171 760 111 718 128 728 l 171 481 l 71 481 l 71 371 l 421 371 l 421 481 l 324 481 l 324 932 z "},"÷":{"ha":710,"x_min":0,"x_max":0,"o":"m 638 390 l 638 538 l 71 538 l 71 390 z m 436 601 l 436 785 l 272 785 l 272 601 z m 436 143 l 436 326 l 272 326 l 272 143 z "},"¦":{"ha":694,"x_min":0,"x_max":0,"o":"m 451 938 l 243 938 l 243 451 l 451 451 z m 451 243 l 243 243 l 243 -243 l 451 -243 z "},"°":{"ha":710,"x_min":0,"x_max":0,"o":"m 356 940 b 133 719 232 940 133 842 b 356 499 133 596 233 499 b 576 719 476 499 576 597 b 356 940 576 840 479 940 z m 356 831 b 450 719 410 831 450 779 b 356 610 450 660 408 610 b 260 719 304 610 260 657 b 356 831 260 782 303 831 z "},"þ":{"ha":663,"x_min":0,"x_max":0,"o":"m 71 926 l 71 -232 l 258 -232 l 261 50 b 389 -10 282 28 315 -10 b 621 353 611 -10 621 268 b 406 694 621 603 513 694 b 258 599 319 694 278 628 l 258 926 z m 258 410 b 276 518 258 465 261 492 b 347 568 289 542 314 568 b 424 357 410 568 424 497 b 339 122 424 211 418 122 b 258 279 258 122 258 181 z "},"¾":{"ha":1113,"x_min":0,"x_max":0,"o":"m 747 224 l 871 435 l 871 224 z m 746 926 l 308 0 l 429 0 l 867 926 z m 850 564 l 644 231 l 644 125 l 857 125 l 857 0 l 1010 0 l 1010 125 l 1076 125 l 1076 238 l 1010 238 l 1010 564 z m 190 754 b 249 822 194 776 204 822 b 299 767 286 822 299 797 b 225 708 299 708 257 708 l 178 708 l 178 607 l 225 607 b 306 542 267 607 306 596 b 249 479 306 506 288 479 b 179 560 189 479 183 525 l 42 540 b 257 361 50 493 71 361 b 463 529 376 361 463 424 b 361 663 463 576 447 632 b 450 785 399 681 450 706 b 264 935 450 865 392 935 b 54 778 150 935 85 881 z "},"®":{"ha":710,"x_min":0,"x_max":0,"o":"m 249 510 l 324 510 l 324 629 l 360 629 l 403 510 l 483 510 l 424 644 b 471 722 438 650 471 668 b 354 815 471 815 392 815 l 249 815 z m 324 765 l 353 765 b 397 724 368 765 397 765 b 356 679 397 699 386 679 l 324 679 z m 78 657 b 356 381 78 501 204 381 b 632 657 506 381 632 501 b 356 936 632 814 507 936 b 78 657 203 936 78 813 z m 153 657 b 356 865 153 774 244 865 b 557 657 467 865 557 772 b 356 451 557 542 465 451 b 153 657 246 451 153 540 z "},"−":{"ha":710,"x_min":0,"x_max":0,"o":"m 639 389 l 639 536 l 71 536 l 71 389 z "},"ð":{"ha":639,"x_min":0,"x_max":0,"o":"m 238 342 b 318 565 238 510 257 565 b 400 343 378 565 400 518 b 319 119 400 160 375 119 b 238 342 263 119 238 161 z m 601 926 l 556 1019 l 392 942 b 358 1003 381 963 369 982 l 225 939 b 258 879 246 903 254 888 l 113 810 l 158 715 l 310 788 b 364 667 321 768 332 740 b 274 697 343 681 321 697 b 40 343 217 697 40 663 b 126 57 40 183 81 108 b 322 -14 171 7 235 -14 b 511 57 419 -14 475 18 b 597 331 586 138 597 263 b 443 851 597 522 526 692 z "},"×":{"ha":710,"x_min":0,"x_max":0,"o":"m 356 571 l 197 729 l 89 621 l 247 463 l 89 306 l 197 197 l 356 354 l 513 197 l 621 306 l 464 463 l 621 621 l 513 729 z "},"©":{"ha":1082,"x_min":0,"x_max":0,"o":"m 632 396 b 554 288 628 363 618 288 b 474 456 486 288 474 358 b 554 638 474 578 496 638 b 631 517 622 638 628 565 l 769 525 b 553 749 765 581 753 749 b 315 458 372 749 315 610 b 551 176 315 335 363 176 b 772 389 671 176 761 247 z m 540 -17 b 1025 463 808 -17 1025 196 b 540 943 1025 726 810 943 b 56 463 272 943 56 726 b 540 -17 56 196 274 -17 z m 540 90 b 174 463 339 90 174 256 b 540 836 174 668 339 836 b 907 463 743 836 907 668 b 540 90 907 256 743 90 z "},"Á":{"ha":710,"x_min":0,"x_max":0,"o":"m 250 926 l -28 0 l 160 0 l 206 190 l 465 190 l 513 0 l 719 0 l 456 926 z m 244 350 l 335 728 l 428 350 z m 233 1068 l 275 997 l 565 1086 l 519 1219 z "},"Â":{"ha":710,"x_min":0,"x_max":0,"o":"m 250 926 l -28 0 l 160 0 l 206 190 l 465 190 l 513 0 l 719 0 l 456 926 z m 244 350 l 335 728 l 428 350 z m 74 1008 l 226 1008 l 354 1076 l 482 1008 l 635 1008 l 354 1213 z "},"Ä":{"ha":710,"x_min":0,"x_max":0,"o":"m 250 926 l -28 0 l 160 0 l 206 190 l 465 190 l 513 0 l 719 0 l 456 926 z m 244 350 l 335 728 l 428 350 z m 243 1014 b 322 1088 275 1014 322 1039 b 243 1164 322 1132 285 1164 b 163 1089 201 1164 163 1133 b 243 1014 163 1039 210 1014 z m 478 1014 b 558 1089 511 1014 558 1038 b 478 1164 558 1133 519 1164 b 399 1088 436 1164 399 1132 b 478 1014 399 1039 446 1014 z "},"À":{"ha":710,"x_min":0,"x_max":0,"o":"m 250 926 l -28 0 l 160 0 l 206 190 l 465 190 l 513 0 l 719 0 l 456 926 z m 244 350 l 335 728 l 428 350 z m 444 1068 l 157 1219 l 113 1086 l 403 997 z "},"Å":{"ha":710,"x_min":0,"x_max":0,"o":"m 250 926 l -28 0 l 160 0 l 206 190 l 465 190 l 513 0 l 719 0 l 456 926 z m 244 350 l 335 728 l 428 350 z m 347 985 b 482 1118 404 985 482 1029 b 347 1254 482 1201 415 1254 b 213 1118 278 1254 213 1200 b 347 985 213 1029 289 985 z m 347 1063 b 293 1118 324 1063 293 1082 b 347 1176 293 1154 321 1176 b 401 1118 374 1176 401 1154 b 347 1063 401 1082 371 1063 z "},"Ã":{"ha":710,"x_min":0,"x_max":0,"o":"m 250 926 l -28 0 l 160 0 l 206 190 l 465 190 l 513 0 l 719 0 l 456 926 z m 244 350 l 335 728 l 428 350 z m 513 1160 b 444 1110 492 1133 474 1110 b 382 1126 424 1110 404 1117 b 261 1161 303 1157 294 1161 b 104 1061 215 1161 171 1143 l 165 1015 b 235 1058 196 1046 208 1058 b 297 1042 256 1058 279 1049 b 413 1007 372 1011 381 1007 b 576 1114 483 1007 538 1056 z "},"Ç":{"ha":757,"x_min":0,"x_max":0,"o":"m 722 582 b 657 815 718 638 711 735 b 406 940 615 876 546 940 b 54 463 96 940 54 631 b 176 72 54 326 79 176 b 349 -11 238 8 314 -4 l 307 -128 b 351 -125 322 -126 339 -125 b 431 -185 414 -125 431 -162 b 386 -224 431 -217 401 -224 b 274 -189 343 -224 297 -200 l 250 -250 b 404 -300 288 -272 333 -300 b 549 -181 507 -300 549 -240 b 497 -85 549 -146 533 -104 b 407 -71 463 -67 435 -69 l 426 -14 b 632 82 472 -8 563 1 b 726 325 715 176 724 289 l 538 338 b 407 151 532 288 515 151 b 268 447 286 151 268 292 b 407 775 268 635 292 775 b 538 568 524 775 532 642 z "},"É":{"ha":663,"x_min":0,"x_max":0,"o":"m 88 926 l 88 0 l 650 0 l 650 165 l 290 165 l 290 393 l 569 393 l 569 553 l 290 553 l 290 767 l 650 767 l 650 926 z m 261 1068 l 303 997 l 593 1086 l 547 1219 z "},"Ê":{"ha":663,"x_min":0,"x_max":0,"o":"m 88 926 l 88 0 l 650 0 l 650 165 l 290 165 l 290 393 l 569 393 l 569 553 l 290 553 l 290 767 l 650 767 l 650 926 z m 88 1008 l 240 1008 l 368 1076 l 496 1008 l 649 1008 l 368 1213 z "},"Ë":{"ha":663,"x_min":0,"x_max":0,"o":"m 88 926 l 88 0 l 650 0 l 650 165 l 290 165 l 290 393 l 569 393 l 569 553 l 290 553 l 290 767 l 650 767 l 650 926 z m 264 1014 b 343 1088 296 1014 343 1039 b 264 1164 343 1132 306 1164 b 183 1089 222 1164 183 1133 b 264 1014 183 1039 231 1014 z m 499 1014 b 579 1089 532 1014 579 1038 b 499 1164 579 1133 540 1164 b 419 1088 457 1164 419 1132 b 499 1014 419 1039 467 1014 z "},"È":{"ha":663,"x_min":0,"x_max":0,"o":"m 88 926 l 88 0 l 650 0 l 650 165 l 290 165 l 290 393 l 569 393 l 569 553 l 290 553 l 290 767 l 650 767 l 650 926 z m 472 1068 l 185 1219 l 140 1086 l 431 997 z "},"Í":{"ha":378,"x_min":0,"x_max":0,"o":"m 88 926 l 88 0 l 290 0 l 290 926 z m 67 1068 l 108 997 l 399 1086 l 353 1219 z "},"Î":{"ha":378,"x_min":0,"x_max":0,"o":"m 88 926 l 88 0 l 290 0 l 290 926 z m -93 1008 l 60 1008 l 188 1076 l 315 1008 l 468 1008 l 188 1213 z "},"Ï":{"ha":378,"x_min":0,"x_max":0,"o":"m 88 926 l 88 0 l 290 0 l 290 926 z m 76 1014 b 156 1088 108 1014 156 1039 b 76 1164 156 1132 118 1164 b -4 1089 35 1164 -4 1133 b 76 1014 -4 1039 43 1014 z m 311 1014 b 392 1089 344 1014 392 1038 b 311 1164 392 1133 353 1164 b 232 1088 269 1164 232 1132 b 311 1014 232 1039 279 1014 z "},"Ì":{"ha":378,"x_min":0,"x_max":0,"o":"m 88 926 l 88 0 l 290 0 l 290 926 z m 292 1068 l 4 1219 l -40 1086 l 250 997 z "},"Ñ":{"ha":781,"x_min":0,"x_max":0,"o":"m 79 926 l 79 0 l 238 0 l 238 671 l 519 0 l 701 0 l 701 926 l 543 926 l 543 351 l 306 926 z m 568 1160 b 500 1110 547 1133 529 1110 b 438 1126 479 1110 460 1117 b 317 1161 358 1157 350 1161 b 160 1061 271 1161 226 1143 l 221 1015 b 290 1058 251 1046 264 1058 b 353 1042 311 1058 335 1049 b 468 1007 428 1011 436 1007 b 632 1114 539 1007 593 1056 z "},"Ó":{"ha":781,"x_min":0,"x_max":0,"o":"m 390 940 b 54 463 89 940 54 640 b 390 -14 54 276 93 -14 b 726 463 696 -14 726 293 b 390 940 726 656 685 940 z m 390 775 b 513 463 496 775 513 657 b 390 151 513 267 494 151 b 268 463 288 151 268 264 b 390 775 268 664 288 775 z m 289 1068 l 331 997 l 621 1086 l 575 1219 z "},"Ô":{"ha":781,"x_min":0,"x_max":0,"o":"m 390 940 b 54 463 89 940 54 640 b 390 -14 54 276 93 -14 b 726 463 696 -14 726 293 b 390 940 726 656 685 940 z m 390 775 b 513 463 496 775 513 657 b 390 151 513 267 494 151 b 268 463 288 151 268 264 b 390 775 268 664 288 775 z m 108 1008 l 261 1008 l 389 1076 l 517 1008 l 669 1008 l 389 1213 z "},"Ö":{"ha":781,"x_min":0,"x_max":0,"o":"m 390 940 b 54 463 89 940 54 640 b 390 -14 54 276 93 -14 b 726 463 696 -14 726 293 b 390 940 726 656 685 940 z m 390 775 b 513 463 496 775 513 657 b 390 151 513 267 494 151 b 268 463 288 151 268 264 b 390 775 268 664 288 775 z m 271 1014 b 350 1088 303 1014 350 1039 b 271 1164 350 1132 313 1164 b 190 1089 229 1164 190 1133 b 271 1014 190 1039 238 1014 z m 506 1014 b 586 1089 539 1014 586 1038 b 506 1164 586 1133 547 1164 b 426 1088 464 1164 426 1132 b 506 1014 426 1039 474 1014 z "},"Ò":{"ha":781,"x_min":0,"x_max":0,"o":"m 390 940 b 54 463 89 940 54 640 b 390 -14 54 276 93 -14 b 726 463 696 -14 726 293 b 390 940 726 656 685 940 z m 390 775 b 513 463 496 775 513 657 b 390 151 513 267 494 151 b 268 463 288 151 268 264 b 390 775 268 664 288 775 z m 472 1068 l 185 1219 l 140 1086 l 431 997 z "},"Õ":{"ha":781,"x_min":0,"x_max":0,"o":"m 390 940 b 54 463 89 940 54 640 b 390 -14 54 276 93 -14 b 726 463 696 -14 726 293 b 390 940 726 656 685 940 z m 390 775 b 513 463 496 775 513 657 b 390 151 513 267 494 151 b 268 463 288 151 268 264 b 390 775 268 664 288 775 z m 533 1160 b 465 1110 513 1133 494 1110 b 403 1126 444 1110 425 1117 b 282 1161 324 1157 315 1161 b 125 1061 236 1161 192 1143 l 186 1015 b 256 1058 217 1046 229 1058 b 318 1042 276 1058 300 1049 b 433 1007 393 1011 401 1007 b 597 1114 504 1007 558 1056 z "},"Š":{"ha":710,"x_min":0,"x_max":0,"o":"m 654 725 b 356 940 635 786 586 940 b 60 657 153 940 60 801 b 339 368 60 468 213 414 b 467 251 408 343 467 317 b 349 151 467 190 418 151 b 200 290 238 151 211 249 l 22 240 b 101 83 33 200 50 143 b 343 -14 176 -1 276 -14 b 672 282 561 -14 672 124 b 417 567 672 469 521 526 b 257 690 318 604 257 626 b 354 775 257 728 286 775 b 485 660 447 775 474 693 z m 74 1185 l 354 982 l 635 1185 l 482 1185 l 354 1118 l 226 1185 z "},"Ú":{"ha":804,"x_min":0,"x_max":0,"o":"m 88 926 l 88 397 b 404 -14 88 200 89 -14 b 604 39 500 -14 561 11 b 717 406 717 114 717 242 l 717 926 l 546 926 l 546 397 b 529 213 546 296 546 249 b 422 151 514 181 485 151 b 290 397 290 151 290 263 l 290 926 z m 289 1068 l 331 997 l 621 1086 l 575 1219 z "},"Û":{"ha":804,"x_min":0,"x_max":0,"o":"m 88 926 l 88 397 b 404 -14 88 200 89 -14 b 604 39 500 -14 561 11 b 717 406 717 114 717 242 l 717 926 l 546 926 l 546 397 b 529 213 546 296 546 249 b 422 151 514 181 485 151 b 290 397 290 151 290 263 l 290 926 z m 122 1008 l 275 1008 l 403 1076 l 531 1008 l 683 1008 l 403 1213 z "},"Ü":{"ha":804,"x_min":0,"x_max":0,"o":"m 88 926 l 88 397 b 404 -14 88 200 89 -14 b 604 39 500 -14 561 11 b 717 406 717 114 717 242 l 717 926 l 546 926 l 546 397 b 529 213 546 296 546 249 b 422 151 514 181 485 151 b 290 397 290 151 290 263 l 290 926 z m 299 1014 b 378 1088 331 1014 378 1039 b 299 1164 378 1132 340 1164 b 218 1089 257 1164 218 1133 b 299 1014 218 1039 265 1014 z m 533 1014 b 614 1089 567 1014 614 1038 b 533 1164 614 1133 575 1164 b 454 1088 492 1164 454 1132 b 533 1014 454 1039 501 1014 z "},"Ù":{"ha":804,"x_min":0,"x_max":0,"o":"m 88 926 l 88 397 b 404 -14 88 200 89 -14 b 604 39 500 -14 561 11 b 717 406 717 114 717 242 l 717 926 l 546 926 l 546 397 b 529 213 546 296 546 249 b 422 151 514 181 485 151 b 290 397 290 151 290 263 l 290 926 z m 472 1068 l 185 1219 l 140 1086 l 431 997 z "},"Ý":{"ha":615,"x_min":0,"x_max":0,"o":"m -39 926 l 193 392 l 193 0 l 396 0 l 396 392 l 653 926 l 454 926 l 315 588 l 185 926 z m 261 1068 l 303 997 l 593 1086 l 547 1219 z "},"Ÿ":{"ha":615,"x_min":0,"x_max":0,"o":"m -39 926 l 193 392 l 193 0 l 396 0 l 396 392 l 653 926 l 454 926 l 315 588 l 185 926 z m 201 1014 b 281 1088 233 1014 281 1039 b 201 1164 281 1132 243 1164 b 121 1089 160 1164 121 1133 b 201 1014 121 1039 168 1014 z m 436 1014 b 517 1089 469 1014 517 1038 b 436 1164 517 1133 478 1164 b 357 1088 394 1164 357 1132 b 436 1014 357 1039 404 1014 z "},"Ž":{"ha":639,"x_min":0,"x_max":0,"o":"m 31 926 l 31 761 l 392 761 l 1 142 l 1 0 l 638 0 l 638 165 l 238 165 l 625 782 l 625 926 z m 39 1185 l 319 982 l 600 1185 l 447 1185 l 319 1118 l 192 1185 z "},"á":{"ha":663,"x_min":0,"x_max":0,"o":"m 251 468 b 333 574 257 522 269 574 b 401 451 401 574 401 511 l 401 425 b 49 174 197 414 49 364 b 228 -14 49 39 136 -14 b 417 106 347 -14 392 61 b 426 0 417 43 418 28 l 603 0 b 592 153 596 24 592 36 l 592 425 b 547 628 592 508 589 586 b 349 700 496 682 421 700 b 186 663 292 700 235 690 b 72 486 89 607 78 525 z m 401 294 b 372 150 401 232 399 189 b 310 113 354 124 333 113 b 246 199 264 113 246 150 b 401 328 246 288 292 314 z m 265 815 l 322 758 l 572 915 l 496 1029 z "},"â":{"ha":663,"x_min":0,"x_max":0,"o":"m 251 468 b 333 574 257 522 269 574 b 401 451 401 574 401 511 l 401 425 b 49 174 197 414 49 364 b 228 -14 49 39 136 -14 b 417 106 347 -14 392 61 b 426 0 417 43 418 28 l 603 0 b 592 153 596 24 592 36 l 592 425 b 547 628 592 508 589 586 b 349 700 496 682 421 700 b 186 663 292 700 235 690 b 72 486 89 607 78 525 z m 401 294 b 372 150 401 232 399 189 b 310 113 354 124 333 113 b 246 199 264 113 246 150 b 401 328 246 288 292 314 z m 60 768 l 208 768 l 332 847 l 456 768 l 604 768 l 332 981 z "},"ä":{"ha":663,"x_min":0,"x_max":0,"o":"m 251 468 b 333 574 257 522 269 574 b 401 451 401 574 401 511 l 401 425 b 49 174 197 414 49 364 b 228 -14 49 39 136 -14 b 417 106 347 -14 392 61 b 426 0 417 43 418 28 l 603 0 b 592 153 596 24 592 36 l 592 425 b 547 628 592 508 589 586 b 349 700 496 682 421 700 b 186 663 292 700 235 690 b 72 486 89 607 78 525 z m 401 294 b 372 150 401 232 399 189 b 310 113 354 124 333 113 b 246 199 264 113 246 150 b 401 328 246 288 292 314 z m 217 789 b 294 861 250 789 294 814 b 217 935 294 903 260 935 b 139 861 174 935 139 903 b 217 789 139 814 183 789 z m 446 789 b 524 861 478 789 524 813 b 446 935 524 903 488 935 b 368 861 403 935 368 903 b 446 789 368 814 413 789 z "},"à":{"ha":663,"x_min":0,"x_max":0,"o":"m 251 468 b 333 574 257 522 269 574 b 401 451 401 574 401 511 l 401 425 b 49 174 197 414 49 364 b 228 -14 49 39 136 -14 b 417 106 347 -14 392 61 b 426 0 417 43 418 28 l 603 0 b 592 153 596 24 592 36 l 592 425 b 547 628 592 508 589 586 b 349 700 496 682 421 700 b 186 663 292 700 235 690 b 72 486 89 607 78 525 z m 401 294 b 372 150 401 232 399 189 b 310 113 354 124 333 113 b 246 199 264 113 246 150 b 401 328 246 288 292 314 z m 454 815 l 224 1029 l 147 915 l 397 758 z "},"å":{"ha":663,"x_min":0,"x_max":0,"o":"m 251 468 b 333 574 257 522 269 574 b 401 451 401 574 401 511 l 401 425 b 49 174 197 414 49 364 b 228 -14 49 39 136 -14 b 417 106 347 -14 392 61 b 426 0 417 43 418 28 l 603 0 b 592 153 596 24 592 36 l 592 425 b 547 628 592 508 589 586 b 349 700 496 682 421 700 b 186 663 292 700 235 690 b 72 486 89 607 78 525 z m 401 294 b 372 150 401 232 399 189 b 310 113 354 124 333 113 b 246 199 264 113 246 150 b 401 328 246 288 292 314 z m 332 751 b 463 882 386 751 463 794 b 332 1015 463 964 396 1015 b 201 882 268 1015 201 964 b 332 751 201 796 276 751 z m 332 828 b 281 882 310 828 281 847 b 332 939 281 918 308 939 b 383 883 357 939 383 917 b 332 828 383 847 354 828 z "},"ã":{"ha":663,"x_min":0,"x_max":0,"o":"m 251 468 b 333 574 257 522 269 574 b 401 451 401 574 401 511 l 401 425 b 49 174 197 414 49 364 b 228 -14 49 39 136 -14 b 417 106 347 -14 392 61 b 426 0 417 43 418 28 l 603 0 b 592 153 596 24 592 36 l 592 425 b 547 628 592 508 589 586 b 349 700 496 682 421 700 b 186 663 292 700 235 690 b 72 486 89 607 78 525 z m 401 294 b 372 150 401 232 399 189 b 310 113 354 124 333 113 b 246 199 264 113 246 150 b 401 328 246 288 292 314 z m 494 940 b 429 890 476 915 458 890 b 371 907 411 890 393 897 b 257 940 296 938 288 940 b 108 843 219 940 175 926 l 168 799 b 232 842 193 828 207 842 b 400 790 282 842 342 790 b 556 894 443 790 497 808 z "},"ç":{"ha":615,"x_min":0,"x_max":0,"o":"m 582 433 b 508 629 578 492 572 560 b 324 700 454 688 386 700 b 42 342 108 700 42 528 b 267 -11 42 169 92 17 l 226 -124 b 272 -119 242 -121 256 -119 b 351 -178 317 -119 351 -143 b 303 -219 351 -210 324 -219 b 193 -182 260 -219 218 -196 l 171 -243 b 319 -290 207 -264 251 -290 b 460 -175 419 -290 460 -232 b 322 -68 460 -161 460 -57 l 344 -14 b 582 257 447 1 558 36 l 404 267 b 326 140 400 196 386 140 b 233 351 244 140 233 249 b 329 554 233 510 272 554 b 404 426 374 554 397 525 z "},"é":{"ha":639,"x_min":0,"x_max":0,"o":"m 599 311 b 549 575 599 394 597 482 b 325 700 518 633 444 700 b 93 569 232 700 142 657 b 42 333 47 486 42 378 b 326 -14 42 151 117 -14 b 599 225 547 -14 585 161 l 428 236 b 331 118 422 192 413 118 b 239 311 236 118 238 218 z m 240 421 b 329 574 242 469 243 574 b 418 421 422 574 419 458 z m 253 815 l 310 758 l 560 915 l 483 1029 z "},"ê":{"ha":639,"x_min":0,"x_max":0,"o":"m 599 311 b 549 575 599 394 597 482 b 325 700 518 633 444 700 b 93 569 232 700 142 657 b 42 333 47 486 42 378 b 326 -14 42 151 117 -14 b 599 225 547 -14 585 161 l 428 236 b 331 118 422 192 413 118 b 239 311 236 118 238 218 z m 240 421 b 329 574 242 469 243 574 b 418 421 422 574 419 458 z m 47 768 l 196 768 l 319 847 l 443 768 l 592 768 l 319 981 z "},"ë":{"ha":639,"x_min":0,"x_max":0,"o":"m 599 311 b 549 575 599 394 597 482 b 325 700 518 633 444 700 b 93 569 232 700 142 657 b 42 333 47 486 42 378 b 326 -14 42 151 117 -14 b 599 225 547 -14 585 161 l 428 236 b 331 118 422 192 413 118 b 239 311 236 118 238 218 z m 240 421 b 329 574 242 469 243 574 b 418 421 422 574 419 458 z m 204 789 b 282 861 238 789 282 814 b 204 935 282 903 247 935 b 126 861 161 935 126 903 b 204 789 126 814 171 789 z m 433 789 b 511 861 465 789 511 813 b 433 935 511 903 475 935 b 356 861 390 935 356 903 b 433 789 356 814 400 789 z "},"è":{"ha":639,"x_min":0,"x_max":0,"o":"m 599 311 b 549 575 599 394 597 482 b 325 700 518 633 444 700 b 93 569 232 700 142 657 b 42 333 47 486 42 378 b 326 -14 42 151 117 -14 b 599 225 547 -14 585 161 l 428 236 b 331 118 422 192 413 118 b 239 311 236 118 238 218 z m 240 421 b 329 574 242 469 243 574 b 418 421 422 574 419 458 z m 400 815 l 169 1029 l 93 915 l 343 758 z "},"í":{"ha":331,"x_min":0,"x_max":0,"o":"m 71 685 l 71 0 l 261 0 l 261 685 z m 99 815 l 156 758 l 406 915 l 329 1029 z "},"î":{"ha":331,"x_min":0,"x_max":0,"o":"m 71 685 l 71 0 l 261 0 l 261 685 z m -107 768 l 42 768 l 165 847 l 289 768 l 438 768 l 165 981 z "},"ï":{"ha":331,"x_min":0,"x_max":0,"o":"m 71 685 l 71 0 l 261 0 l 261 685 z m 50 789 b 128 861 83 789 128 814 b 50 935 128 903 93 935 b -28 861 7 935 -28 903 b 50 789 -28 814 17 789 z m 279 789 b 357 861 311 789 357 813 b 279 935 357 903 321 935 b 201 861 236 935 201 903 b 279 789 201 814 246 789 z "},"ì":{"ha":331,"x_min":0,"x_max":0,"o":"m 71 685 l 71 0 l 261 0 l 261 685 z m 260 815 l 29 1029 l -47 915 l 203 758 z "},"ñ":{"ha":663,"x_min":0,"x_max":0,"o":"m 71 685 l 71 0 l 261 0 l 261 401 b 346 551 261 485 261 551 b 411 450 406 551 411 511 l 411 0 l 601 0 l 601 450 b 574 628 601 518 601 585 b 422 700 526 700 449 700 b 251 592 315 700 279 649 l 251 685 z m 494 940 b 429 890 476 915 458 890 b 371 907 411 890 393 897 b 257 940 296 938 288 940 b 108 843 219 940 175 926 l 168 799 b 232 842 193 828 207 842 b 400 790 282 842 342 790 b 556 894 443 790 497 808 z "},"ó":{"ha":639,"x_min":0,"x_max":0,"o":"m 319 700 b 40 343 115 700 40 557 b 318 -14 40 122 121 -14 b 597 343 518 -14 597 124 b 319 700 597 557 522 700 z m 319 567 b 400 343 378 567 400 519 b 319 119 400 160 375 119 b 238 343 263 119 238 161 b 318 567 238 511 257 567 z m 253 815 l 310 758 l 560 915 l 483 1029 z "},"ô":{"ha":639,"x_min":0,"x_max":0,"o":"m 319 700 b 40 343 115 700 40 557 b 318 -14 40 122 121 -14 b 597 343 518 -14 597 124 b 319 700 597 557 522 700 z m 319 567 b 400 343 378 567 400 519 b 319 119 400 160 375 119 b 238 343 263 119 238 161 b 318 567 238 511 257 567 z m 47 768 l 196 768 l 319 847 l 443 768 l 592 768 l 319 981 z "},"ö":{"ha":639,"x_min":0,"x_max":0,"o":"m 319 700 b 40 343 115 700 40 557 b 318 -14 40 122 121 -14 b 597 343 518 -14 597 124 b 319 700 597 557 522 700 z m 319 567 b 400 343 378 567 400 519 b 319 119 400 160 375 119 b 238 343 263 119 238 161 b 318 567 238 511 257 567 z m 204 789 b 282 861 238 789 282 814 b 204 935 282 903 247 935 b 126 861 161 935 126 903 b 204 789 126 814 171 789 z m 433 789 b 511 861 465 789 511 813 b 433 935 511 903 475 935 b 356 861 390 935 356 903 b 433 789 356 814 400 789 z "},"ò":{"ha":639,"x_min":0,"x_max":0,"o":"m 319 700 b 40 343 115 700 40 557 b 318 -14 40 122 121 -14 b 597 343 518 -14 597 124 b 319 700 597 557 522 700 z m 319 567 b 400 343 378 567 400 519 b 319 119 400 160 375 119 b 238 343 263 119 238 161 b 318 567 238 511 257 567 z m 386 815 l 156 1029 l 79 915 l 329 758 z "},"õ":{"ha":639,"x_min":0,"x_max":0,"o":"m 319 700 b 40 343 115 700 40 557 b 318 -14 40 122 121 -14 b 597 343 518 -14 597 124 b 319 700 597 557 522 700 z m 319 567 b 400 343 378 567 400 519 b 319 119 400 160 375 119 b 238 343 263 119 238 161 b 318 567 238 511 257 567 z m 482 940 b 417 890 464 915 446 890 b 358 907 399 890 381 897 b 244 940 283 938 275 940 b 96 843 207 940 163 926 l 156 799 b 219 842 181 828 194 842 b 388 790 269 842 329 790 b 543 894 431 790 485 808 z "},"š":{"ha":568,"x_min":0,"x_max":0,"o":"m 522 521 b 290 700 497 633 406 700 b 47 482 168 700 47 629 b 253 267 47 335 181 289 b 363 176 321 244 363 231 b 286 113 363 117 306 113 b 178 215 200 113 183 189 l 26 190 b 283 -14 35 139 58 -14 b 543 210 472 -14 543 108 b 340 419 543 349 436 386 b 226 514 264 447 226 460 b 286 574 226 542 242 574 b 386 481 356 574 375 515 z m 13 967 l 285 754 l 557 967 l 408 967 l 285 886 l 161 967 z "},"ú":{"ha":663,"x_min":0,"x_max":0,"o":"m 61 685 l 61 239 b 236 -14 61 114 61 -14 b 413 94 347 -14 378 36 l 413 0 l 592 0 l 592 685 l 401 685 l 401 335 b 317 133 401 188 401 133 b 251 244 251 133 251 176 l 251 685 z m 265 815 l 322 758 l 572 915 l 496 1029 z "},"û":{"ha":663,"x_min":0,"x_max":0,"o":"m 61 685 l 61 239 b 236 -14 61 114 61 -14 b 413 94 347 -14 378 36 l 413 0 l 592 0 l 592 685 l 401 685 l 401 335 b 317 133 401 188 401 133 b 251 244 251 133 251 176 l 251 685 z m 60 768 l 208 768 l 332 847 l 456 768 l 604 768 l 332 981 z "},"ü":{"ha":663,"x_min":0,"x_max":0,"o":"m 61 685 l 61 239 b 236 -14 61 114 61 -14 b 413 94 347 -14 378 36 l 413 0 l 592 0 l 592 685 l 401 685 l 401 335 b 317 133 401 188 401 133 b 251 244 251 133 251 176 l 251 685 z m 217 789 b 294 861 250 789 294 814 b 217 935 294 903 260 935 b 139 861 174 935 139 903 b 217 789 139 814 183 789 z m 446 789 b 524 861 478 789 524 813 b 446 935 524 903 488 935 b 368 861 403 935 368 903 b 446 789 368 814 413 789 z "},"ù":{"ha":663,"x_min":0,"x_max":0,"o":"m 61 685 l 61 239 b 236 -14 61 114 61 -14 b 413 94 347 -14 378 36 l 413 0 l 592 0 l 592 685 l 401 685 l 401 335 b 317 133 401 188 401 133 b 251 244 251 133 251 176 l 251 685 z m 383 815 l 153 1029 l 76 915 l 326 758 z "},"ý":{"ha":497,"x_min":0,"x_max":0,"o":"m -18 685 l 178 13 b 64 -86 154 -69 139 -86 b 10 -82 42 -86 28 -85 l 10 -232 b 92 -243 33 -237 54 -243 b 313 -12 243 -243 274 -142 l 518 685 l 354 685 l 265 265 l 172 685 z m 182 815 l 239 758 l 489 915 l 413 1029 z "},"ÿ":{"ha":497,"x_min":0,"x_max":0,"o":"m -18 685 l 178 13 b 64 -86 154 -69 139 -86 b 10 -82 42 -86 28 -85 l 10 -232 b 92 -243 33 -237 54 -243 b 313 -12 243 -243 274 -142 l 518 685 l 354 685 l 265 265 l 172 685 z m 133 789 b 211 861 167 789 211 814 b 133 935 211 903 176 935 b 56 861 90 935 56 903 b 133 789 56 814 100 789 z m 363 789 b 440 861 394 789 440 813 b 363 935 440 903 404 935 b 285 861 319 935 285 903 b 363 789 285 814 329 789 z "},"ž":{"ha":497,"x_min":0,"x_max":0,"o":"m 51 685 l 51 549 l 276 549 l 28 136 l 28 0 l 485 0 l 485 136 l 225 136 l 479 563 l 479 685 z m -24 967 l 249 754 l 521 967 l 372 967 l 249 886 l 125 967 z "},"ﬁ":{"ha":733,"x_min":0,"x_max":0,"o":"m 286 685 b 404 808 286 781 286 819 l 404 957 b 326 963 382 960 363 963 b 176 919 253 963 214 949 b 103 685 110 867 106 801 l 25 685 l 25 535 l 103 535 l 103 0 l 286 0 l 286 535 l 407 535 l 407 685 z m 472 685 l 472 0 l 663 0 l 663 685 z m 664 743 l 664 932 l 471 932 l 471 743 z "},"ﬂ":{"ha":733,"x_min":0,"x_max":0,"o":"m 286 685 b 404 807 286 779 286 818 l 404 957 b 326 963 382 960 363 963 b 176 919 253 963 214 949 b 103 685 110 867 106 801 l 25 685 l 25 535 l 103 535 l 103 0 l 286 0 l 286 535 l 407 535 l 407 685 z m 472 926 l 472 0 l 663 0 l 663 926 z "},"¹":{"ha":474,"x_min":0,"x_max":0,"o":"m 222 932 b 86 829 185 886 149 860 l 86 700 b 186 760 126 718 143 728 l 186 481 l 86 481 l 86 371 l 436 371 l 436 481 l 339 481 l 339 932 z "},"²":{"ha":474,"x_min":0,"x_max":0,"o":"m 163 714 b 224 817 168 783 183 817 b 267 763 260 817 267 786 b 24 492 267 703 239 657 l 24 371 l 424 371 l 435 497 l 188 497 b 426 768 301 567 426 643 b 231 935 426 822 393 935 b 22 740 56 935 32 794 z "},"³":{"ha":474,"x_min":0,"x_max":0,"o":"m 158 754 b 217 822 163 776 172 822 b 267 767 254 822 267 797 b 193 708 267 708 225 708 l 146 708 l 146 607 l 193 607 b 274 542 235 607 274 596 b 217 479 274 506 256 479 b 147 560 157 479 151 525 l 10 540 b 225 361 18 493 39 361 b 431 529 344 361 431 424 b 329 663 431 576 415 632 b 418 785 367 681 418 706 b 232 935 418 865 360 935 b 22 778 118 935 53 881 z "},"∆":{"ha":839,"x_min":0,"x_max":0,"o":"m 33 0 l 803 0 l 803 107 l 529 939 l 318 939 l 33 104 z m 215 144 l 350 521 b 415 739 369 596 404 692 l 418 739 b 488 501 432 682 469 574 l 614 144 z "},"Ω":{"ha":892,"x_min":0,"x_max":0,"o":"m 211 146 l 43 146 l 43 0 l 385 0 l 385 107 b 242 476 310 154 242 285 b 447 782 242 654 322 782 b 646 483 578 782 646 644 b 504 107 646 272 576 157 l 504 0 l 844 0 l 844 146 l 675 146 l 675 150 b 826 524 751 225 826 358 b 449 933 826 710 700 933 b 61 513 215 933 61 739 b 211 150 61 350 136 225 z "},"μ":{"ha":663,"x_min":0,"x_max":0,"o":"m 401 685 l 401 336 b 393 182 401 297 401 208 b 326 135 383 146 354 135 b 260 181 308 135 271 140 b 251 336 251 208 251 297 l 251 685 l 61 685 l 61 -232 l 240 -232 l 240 94 b 326 -14 251 42 263 -14 b 413 94 390 -14 401 42 l 413 0 l 592 0 l 592 685 z "},"π":{"ha":776,"x_min":0,"x_max":0,"o":"m 747 539 l 760 693 l 219 693 b 4 647 108 693 38 674 l 24 526 b 144 539 51 535 88 539 b 67 0 142 401 110 158 l 240 0 b 319 539 285 143 314 404 l 482 539 l 482 186 b 504 0 482 97 488 29 l 676 0 b 660 193 667 42 660 100 l 660 539 z "},"€":{"ha":710,"x_min":0,"x_max":0,"o":"m 704 267 l 536 278 b 438 135 521 171 488 135 b 342 329 378 135 350 181 l 486 329 l 503 431 l 339 431 l 339 500 l 515 500 l 532 601 l 343 601 b 446 792 353 738 381 792 b 540 654 510 792 528 739 l 701 668 b 446 940 689 843 593 940 b 133 601 263 940 161 819 l 42 601 l 25 500 l 125 500 l 125 461 l 125 431 l 42 431 l 25 329 l 131 329 b 431 -14 151 81 256 -14 b 704 267 544 -14 663 50 z "},"ℓ":{"ha":663,"x_min":0,"x_max":0,"o":"m 571 250 b 413 133 533 192 478 133 b 306 265 353 133 308 179 l 306 328 b 551 776 457 479 551 625 b 369 1014 551 908 496 1014 b 133 678 239 1014 133 908 l 133 350 b 28 260 101 318 65 293 l 69 165 b 135 217 92 181 115 200 b 136 201 135 211 135 207 b 371 -10 149 89 213 -10 b 640 175 472 -10 572 38 z m 306 675 b 379 886 306 840 343 886 b 443 785 426 886 443 849 b 306 492 443 700 386 590 z "},"℮":{"ha":1150,"x_min":0,"x_max":0,"o":"m 1104 450 l 1104 463 b 574 940 1104 726 868 940 b 44 463 282 940 44 726 b 574 -12 44 200 282 -12 b 993 172 744 -12 899 60 l 917 172 b 575 14 833 76 713 14 b 250 154 449 14 333 68 b 239 185 243 164 239 174 l 239 444 b 246 450 239 449 242 450 z m 910 483 b 904 475 910 481 908 475 l 246 475 b 239 483 242 475 239 481 l 239 739 b 251 772 239 751 243 763 b 575 911 335 857 450 911 b 897 776 701 911 814 858 b 910 744 906 768 910 756 z "},"∂":{"ha":743,"x_min":0,"x_max":0,"o":"m 133 831 b 299 893 167 860 222 893 b 506 597 428 893 506 746 l 506 556 l 504 556 b 325 653 486 588 424 653 b 47 306 172 653 47 521 b 317 -7 47 163 135 -7 b 681 542 546 -7 681 207 b 322 1043 681 876 513 1043 b 85 967 200 1043 125 997 z m 333 143 b 224 297 267 143 224 213 b 360 508 224 406 278 508 b 490 408 433 508 479 446 b 335 143 478 289 425 143 z "},"∏":{"ha":929,"x_min":0,"x_max":0,"o":"m 894 756 l 894 919 l 32 919 l 32 756 l 158 756 l 158 -126 l 335 -126 l 335 756 l 592 756 l 592 -126 l 768 -126 l 768 756 z "},"∑":{"ha":711,"x_min":0,"x_max":0,"o":"m 689 -128 l 689 40 l 246 40 l 246 44 l 529 429 l 276 764 l 276 768 l 668 768 l 668 919 l 40 919 l 40 793 l 331 399 l 31 -11 l 31 -128 z "},"∙":{"ha":356,"x_min":0,"x_max":0,"o":"m 83 564 l 83 358 l 272 358 l 272 564 z "},"√":{"ha":765,"x_min":0,"x_max":0,"o":"m 776 1107 l 654 1107 l 442 156 b 421 24 432 104 425 54 l 419 25 b 393 146 413 56 401 101 l 269 543 l 40 450 l 69 350 l 164 389 l 349 -181 l 489 -181 z "},"∞":{"ha":1008,"x_min":0,"x_max":0,"o":"m 946 381 b 742 597 946 511 856 597 b 510 457 625 599 561 515 b 278 597 443 544 374 597 b 61 372 154 597 61 506 b 267 150 61 239 160 150 b 506 294 371 150 439 211 b 735 150 590 179 661 150 b 946 379 842 150 946 235 z m 279 246 b 160 371 211 246 160 303 b 275 504 160 449 203 504 b 453 368 357 504 400 439 b 281 246 403 307 351 246 z m 732 504 b 847 371 801 504 847 447 b 738 246 847 317 808 246 b 558 376 674 246 635 279 b 731 504 599 424 654 504 z "},"∫":{"ha":524,"x_min":0,"x_max":0,"o":"m 492 1125 b 410 1140 475 1132 444 1140 b 253 1078 353 1140 290 1121 b 174 776 196 1017 174 932 b 193 131 174 549 193 376 b 161 -69 193 17 182 -39 b 106 -94 147 -87 126 -94 b 51 -81 82 -94 64 -86 l 31 -210 b 132 -231 50 -219 89 -231 b 307 -131 199 -231 271 -203 b 351 133 335 -76 351 11 b 332 760 351 375 332 543 b 365 978 332 867 339 943 b 429 1013 382 1003 404 1013 b 474 1001 447 1013 461 1007 z "},"≈":{"ha":700,"x_min":0,"x_max":0,"o":"m 589 597 b 476 504 556 543 525 504 b 368 551 439 504 414 524 b 233 597 336 569 296 597 b 46 463 153 597 83 539 l 108 406 b 225 499 140 451 169 499 b 333 454 267 499 296 479 b 475 404 390 418 425 404 b 650 540 547 404 610 461 z m 589 351 b 476 258 554 296 525 258 b 367 306 438 258 407 282 b 233 351 336 324 296 351 b 46 217 154 351 83 292 l 108 160 b 225 253 140 206 169 253 b 333 208 265 253 294 233 b 475 157 389 175 424 157 b 650 294 549 157 611 215 z "},"≠":{"ha":700,"x_min":0,"x_max":0,"o":"m 518 674 l 439 704 l 378 561 l 61 561 l 61 460 l 340 460 l 267 286 l 61 286 l 61 185 l 229 185 l 179 71 l 260 39 l 322 185 l 639 185 l 639 286 l 360 286 l 433 460 l 639 460 l 639 561 l 471 561 z "},"≤":{"ha":700,"x_min":0,"x_max":0,"o":"m 635 131 l 635 250 l 167 475 l 167 478 l 635 701 l 635 821 l 68 532 l 68 421 z m 640 -21 l 640 83 l 63 83 l 63 -21 z "},"≥":{"ha":700,"x_min":0,"x_max":0,"o":"m 71 821 l 71 701 l 538 478 l 538 475 l 71 250 l 71 131 l 638 419 l 638 531 z m 638 -21 l 638 83 l 64 83 l 64 -21 z "},"◊":{"ha":764,"x_min":0,"x_max":0,"o":"m 701 458 l 457 983 l 314 983 l 64 458 l 306 -65 l 449 -65 z m 544 456 l 406 156 b 383 79 400 142 388 100 l 378 79 b 356 158 374 99 365 132 l 219 463 l 356 753 b 381 838 367 781 375 811 l 386 838 b 410 753 390 813 400 779 z "}," ":{"ha":354,"x_min":0,"x_max":0,"o":""},"­":{"ha":379,"x_min":0,"x_max":0,"o":"m 51 426 l 51 276 l 328 276 l 328 426 z "},"ˉ":{"ha":639,"x_min":0,"x_max":0,"o":"m 129 911 l 129 811 l 510 811 l 510 911 z "},"∕":{"ha":165,"x_min":0,"x_max":0,"o":"m 240 926 l -196 0 l -75 0 l 361 926 z "},"Ω":{"ha":892,"x_min":0,"x_max":0,"o":"m 211 146 l 43 146 l 43 0 l 385 0 l 385 107 b 242 476 310 154 242 285 b 447 782 242 654 322 782 b 646 483 578 782 646 644 b 504 107 646 272 576 157 l 504 0 l 844 0 l 844 146 l 675 146 l 675 150 b 826 524 751 225 826 358 b 449 933 826 710 700 933 b 61 513 215 933 61 739 b 211 150 61 350 136 225 z "}}}
